<svg width="203" height="169" viewBox="0 0 203 169" fill="none" xmlns="http://www.w3.org/2000/svg">
<path d="M19.8999 6.20313C20.0066 6.09433 20.1338 6.00789 20.2743 5.94888C20.4148 5.88988 20.5656 5.85948 20.7179 5.85948C20.8703 5.85948 21.0211 5.88988 21.1615 5.94888C21.302 6.00789 21.4292 6.09433 21.5359 6.20313C21.9828 6.65469 21.989 7.38438 21.5515 7.84375L12.3124 18.7656C12.2075 18.8808 12.0802 18.9734 11.9383 19.0377C11.7964 19.102 11.6429 19.1367 11.4871 19.1396C11.3314 19.1425 11.1766 19.1136 11.0324 19.0547C10.8882 18.9958 10.7575 18.908 10.6484 18.7969L5.0265 13.1C4.80968 12.8789 4.68823 12.5816 4.68823 12.2719C4.68823 11.9622 4.80968 11.6649 5.0265 11.4438C5.13314 11.335 5.26041 11.2485 5.40086 11.1895C5.54131 11.1305 5.69212 11.1001 5.84447 11.1001C5.99681 11.1001 6.14763 11.1305 6.28808 11.1895C6.42853 11.2485 6.5558 11.335 6.66244 11.4438L11.4312 16.2766L19.8687 6.2375C19.8784 6.22543 19.8888 6.21395 19.8999 6.20313Z" fill="#74C69D"/>
<path d="M38.9777 16.875H44.6477V18H37.7777V8.1H38.9777V16.875ZM49.4028 10.35C50.1128 10.35 50.7378 10.505 51.2778 10.815C51.8278 11.125 52.2578 11.575 52.5678 12.165C52.8778 12.745 53.0328 13.44 53.0328 14.25C53.0328 15.06 52.8778 15.76 52.5678 16.35C52.2578 16.93 51.8278 17.375 51.2778 17.685C50.7378 17.995 50.1128 18.15 49.4028 18.15C48.7028 18.15 48.0778 17.995 47.5278 17.685C46.9778 17.375 46.5478 16.93 46.2378 16.35C45.9278 15.76 45.7728 15.06 45.7728 14.25C45.7728 13.44 45.9278 12.745 46.2378 12.165C46.5478 11.575 46.9778 11.125 47.5278 10.815C48.0778 10.505 48.7028 10.35 49.4028 10.35ZM49.4028 11.385C48.8928 11.385 48.4578 11.5 48.0978 11.73C47.7378 11.96 47.4578 12.29 47.2578 12.72C47.0678 13.14 46.9728 13.65 46.9728 14.25C46.9728 14.84 47.0678 15.35 47.2578 15.78C47.4578 16.21 47.7378 16.54 48.0978 16.77C48.4578 17 48.8928 17.115 49.4028 17.115C49.9128 17.115 50.3478 17 50.7078 16.77C51.0678 16.54 51.3428 16.21 51.5328 15.78C51.7328 15.35 51.8328 14.84 51.8328 14.25C51.8328 13.65 51.7328 13.14 51.5328 12.72C51.3428 12.29 51.0678 11.96 50.7078 11.73C50.3478 11.5 49.9128 11.385 49.4028 11.385ZM55.292 18V10.5H56.267L56.432 11.73C56.642 11.27 56.947 10.925 57.347 10.695C57.757 10.465 58.252 10.35 58.832 10.35C58.962 10.35 59.102 10.36 59.252 10.38C59.412 10.4 59.547 10.44 59.657 10.5L59.447 11.595C59.337 11.555 59.217 11.525 59.087 11.505C58.957 11.485 58.772 11.475 58.532 11.475C58.222 11.475 57.907 11.565 57.587 11.745C57.277 11.925 57.017 12.2 56.807 12.57C56.597 12.93 56.492 13.39 56.492 13.95V18H55.292ZM64.3156 18.15C63.6056 18.15 62.9706 17.995 62.4106 17.685C61.8606 17.375 61.4306 16.93 61.1206 16.35C60.8106 15.76 60.6556 15.06 60.6556 14.25C60.6556 13.44 60.8106 12.745 61.1206 12.165C61.4306 11.575 61.8556 11.125 62.3956 10.815C62.9356 10.505 63.5506 10.35 64.2406 10.35C64.9406 10.35 65.5356 10.5 66.0256 10.8C66.5256 11.1 66.9056 11.51 67.1656 12.03C67.4256 12.54 67.5556 13.115 67.5556 13.755C67.5556 13.925 67.5506 14.08 67.5406 14.22C67.5306 14.36 67.5156 14.485 67.4956 14.595H61.4356V13.53H66.9706L66.3556 13.65C66.3556 12.93 66.1556 12.375 65.7556 11.985C65.3656 11.595 64.8506 11.4 64.2106 11.4C63.7206 11.4 63.2956 11.515 62.9356 11.745C62.5856 11.965 62.3106 12.29 62.1106 12.72C61.9206 13.14 61.8256 13.65 61.8256 14.25C61.8256 14.84 61.9256 15.35 62.1256 15.78C62.3256 16.21 62.6056 16.54 62.9656 16.77C63.3356 16.99 63.7756 17.1 64.2856 17.1C64.8356 17.1 65.2806 16.995 65.6206 16.785C65.9706 16.575 66.2506 16.29 66.4606 15.93L67.4056 16.485C67.2156 16.825 66.9706 17.12 66.6706 17.37C66.3806 17.62 66.0356 17.815 65.6356 17.955C65.2456 18.085 64.8056 18.15 64.3156 18.15ZM69.8379 18V10.5H70.8879L70.9629 11.67C71.2329 11.21 71.5829 10.875 72.0129 10.665C72.4529 10.455 72.9029 10.35 73.3629 10.35C73.8929 10.35 74.3929 10.47 74.8629 10.71C75.3329 10.95 75.6929 11.32 75.9429 11.82C76.1029 11.48 76.3279 11.205 76.6179 10.995C76.9079 10.775 77.2229 10.615 77.5629 10.515C77.9129 10.405 78.2429 10.35 78.5529 10.35C79.0329 10.35 79.4879 10.45 79.9179 10.65C80.3579 10.85 80.7179 11.16 80.9979 11.58C81.2779 12 81.4179 12.54 81.4179 13.2V18H80.2179V13.32C80.2179 12.64 80.0479 12.15 79.7079 11.85C79.3679 11.55 78.9479 11.4 78.4479 11.4C78.0579 11.4 77.6929 11.495 77.3529 11.685C77.0129 11.875 76.7379 12.155 76.5279 12.525C76.3279 12.895 76.2279 13.35 76.2279 13.89V18H75.0279V13.32C75.0279 12.64 74.8579 12.15 74.5179 11.85C74.1779 11.55 73.7579 11.4 73.2579 11.4C72.9279 11.4 72.5879 11.49 72.2379 11.67C71.8979 11.84 71.6129 12.115 71.3829 12.495C71.1529 12.875 71.0379 13.375 71.0379 13.995V18H69.8379ZM89.8471 9.06C89.5771 9.06 89.3571 8.98 89.1871 8.82C89.0271 8.65 88.9471 8.43 88.9471 8.16C88.9471 7.89 89.0271 7.675 89.1871 7.515C89.3571 7.345 89.5771 7.26 89.8471 7.26C90.1171 7.26 90.3321 7.345 90.4921 7.515C90.6621 7.675 90.7471 7.89 90.7471 8.16C90.7471 8.43 90.6621 8.65 90.4921 8.82C90.3321 8.98 90.1171 9.06 89.8471 9.06ZM90.4471 10.5V18H89.2471V10.5H90.4471ZM93.2314 21.15V10.5H94.2814L94.3864 12.33L94.2214 12.12C94.3514 11.77 94.5464 11.465 94.8064 11.205C95.0664 10.935 95.3814 10.725 95.7514 10.575C96.1214 10.425 96.5214 10.35 96.9514 10.35C97.5614 10.35 98.1214 10.505 98.6314 10.815C99.1514 11.125 99.5664 11.57 99.8764 12.15C100.186 12.73 100.341 13.43 100.341 14.25C100.341 15.06 100.181 15.76 99.8614 16.35C99.5514 16.93 99.1364 17.375 98.6164 17.685C98.0964 17.995 97.5264 18.15 96.9064 18.15C96.2864 18.15 95.7414 18 95.2714 17.7C94.8114 17.39 94.4814 17 94.2814 16.53L94.4314 16.305V21.15H93.2314ZM96.7864 17.1C97.5264 17.1 98.1014 16.84 98.5114 16.32C98.9314 15.8 99.1414 15.11 99.1414 14.25C99.1414 13.39 98.9364 12.7 98.5264 12.18C98.1264 11.66 97.5614 11.4 96.8314 11.4C96.3514 11.4 95.9314 11.52 95.5714 11.76C95.2114 11.99 94.9314 12.32 94.7314 12.75C94.5314 13.17 94.4314 13.67 94.4314 14.25C94.4314 14.82 94.5264 15.32 94.7164 15.75C94.9164 16.18 95.1914 16.515 95.5414 16.755C95.9014 16.985 96.3164 17.1 96.7864 17.1ZM105.336 18.15C104.606 18.15 103.931 17.995 103.311 17.685C102.701 17.375 102.231 16.935 101.901 16.365L102.921 15.63C103.141 16.09 103.461 16.45 103.881 16.71C104.311 16.97 104.826 17.1 105.426 17.1C105.956 17.1 106.371 17 106.671 16.8C106.971 16.59 107.121 16.32 107.121 15.99C107.121 15.78 107.051 15.59 106.911 15.42C106.781 15.24 106.526 15.11 106.146 15.03L104.346 14.655C103.616 14.505 103.091 14.255 102.771 13.905C102.461 13.555 102.306 13.12 102.306 12.6C102.306 12.19 102.421 11.815 102.651 11.475C102.891 11.135 103.226 10.865 103.656 10.665C104.096 10.455 104.611 10.35 105.201 10.35C105.941 10.35 106.566 10.495 107.076 10.785C107.586 11.075 107.966 11.485 108.216 12.015L107.211 12.675C107.041 12.235 106.766 11.915 106.386 11.715C106.006 11.505 105.611 11.4 105.201 11.4C104.841 11.4 104.531 11.45 104.271 11.55C104.021 11.65 103.826 11.79 103.686 11.97C103.556 12.14 103.491 12.335 103.491 12.555C103.491 12.775 103.566 12.98 103.716 13.17C103.866 13.35 104.146 13.48 104.556 13.56L106.431 13.95C107.131 14.09 107.621 14.32 107.901 14.64C108.181 14.96 108.321 15.35 108.321 15.81C108.321 16.28 108.196 16.695 107.946 17.055C107.696 17.405 107.346 17.675 106.896 17.865C106.446 18.055 105.926 18.15 105.336 18.15ZM113.261 18.15C112.781 18.15 112.326 18.06 111.896 17.88C111.476 17.7 111.131 17.41 110.861 17.01C110.601 16.6 110.471 16.07 110.471 15.42V10.5H111.671V15.105C111.671 15.865 111.836 16.39 112.166 16.68C112.496 16.96 112.961 17.1 113.561 17.1C113.841 17.1 114.116 17.055 114.386 16.965C114.656 16.865 114.896 16.715 115.106 16.515C115.326 16.305 115.496 16.04 115.616 15.72C115.746 15.4 115.811 15.02 115.811 14.58V10.5H117.011V18H115.961L115.886 16.86C115.626 17.31 115.271 17.64 114.821 17.85C114.381 18.05 113.861 18.15 113.261 18.15ZM119.804 18V10.5H120.854L120.929 11.67C121.199 11.21 121.549 10.875 121.979 10.665C122.419 10.455 122.869 10.35 123.329 10.35C123.859 10.35 124.359 10.47 124.829 10.71C125.299 10.95 125.659 11.32 125.909 11.82C126.069 11.48 126.294 11.205 126.584 10.995C126.874 10.775 127.189 10.615 127.529 10.515C127.879 10.405 128.209 10.35 128.519 10.35C128.999 10.35 129.454 10.45 129.884 10.65C130.324 10.85 130.684 11.16 130.964 11.58C131.244 12 131.384 12.54 131.384 13.2V18H130.184V13.32C130.184 12.64 130.014 12.15 129.674 11.85C129.334 11.55 128.914 11.4 128.414 11.4C128.024 11.4 127.659 11.495 127.319 11.685C126.979 11.875 126.704 12.155 126.494 12.525C126.294 12.895 126.194 13.35 126.194 13.89V18H124.994V13.32C124.994 12.64 124.824 12.15 124.484 11.85C124.144 11.55 123.724 11.4 123.224 11.4C122.894 11.4 122.554 11.49 122.204 11.67C121.864 11.84 121.579 12.115 121.349 12.495C121.119 12.875 121.004 13.375 121.004 13.995V18H119.804ZM134.701 16.2C134.941 16.2 135.141 16.265 135.301 16.395C135.471 16.515 135.601 16.685 135.691 16.905C135.781 17.115 135.826 17.365 135.826 17.655C135.826 17.985 135.766 18.31 135.646 18.63C135.536 18.95 135.361 19.245 135.121 19.515C134.881 19.785 134.571 20.01 134.191 20.19L133.561 19.605C133.831 19.515 134.066 19.39 134.266 19.23C134.476 19.07 134.646 18.89 134.776 18.69C134.906 18.49 134.991 18.285 135.031 18.075L134.971 18.045C134.931 18.075 134.881 18.1 134.821 18.12C134.761 18.14 134.671 18.15 134.551 18.15C134.431 18.15 134.306 18.115 134.176 18.045C134.056 17.975 133.951 17.875 133.861 17.745C133.771 17.605 133.726 17.425 133.726 17.205C133.726 17.025 133.771 16.86 133.861 16.71C133.951 16.55 134.066 16.425 134.206 16.335C134.356 16.245 134.521 16.2 134.701 16.2ZM146.122 18.15C145.502 18.15 144.932 17.995 144.412 17.685C143.892 17.375 143.477 16.93 143.167 16.35C142.857 15.76 142.702 15.06 142.702 14.25C142.702 13.42 142.867 12.715 143.197 12.135C143.527 11.555 143.962 11.115 144.502 10.815C145.042 10.505 145.622 10.35 146.242 10.35C146.862 10.35 147.397 10.51 147.847 10.83C148.307 11.15 148.612 11.575 148.762 12.105L148.612 12.21V7.05H149.812V18H148.762L148.657 16.185L148.822 16.095C148.752 16.535 148.582 16.91 148.312 17.22C148.052 17.52 147.727 17.75 147.337 17.91C146.957 18.07 146.552 18.15 146.122 18.15ZM146.242 17.1C146.722 17.1 147.137 16.98 147.487 16.74C147.847 16.5 148.122 16.16 148.312 15.72C148.512 15.27 148.612 14.745 148.612 14.145C148.612 13.575 148.512 13.085 148.312 12.675C148.122 12.265 147.852 11.95 147.502 11.73C147.162 11.51 146.762 11.4 146.302 11.4C145.542 11.4 144.952 11.66 144.532 12.18C144.112 12.7 143.902 13.39 143.902 14.25C143.902 15.11 144.107 15.8 144.517 16.32C144.927 16.84 145.502 17.1 146.242 17.1ZM155.707 10.35C156.417 10.35 157.042 10.505 157.582 10.815C158.132 11.125 158.562 11.575 158.872 12.165C159.182 12.745 159.337 13.44 159.337 14.25C159.337 15.06 159.182 15.76 158.872 16.35C158.562 16.93 158.132 17.375 157.582 17.685C157.042 17.995 156.417 18.15 155.707 18.15C155.007 18.15 154.382 17.995 153.832 17.685C153.282 17.375 152.852 16.93 152.542 16.35C152.232 15.76 152.077 15.06 152.077 14.25C152.077 13.44 152.232 12.745 152.542 12.165C152.852 11.575 153.282 11.125 153.832 10.815C154.382 10.505 155.007 10.35 155.707 10.35ZM155.707 11.385C155.197 11.385 154.762 11.5 154.402 11.73C154.042 11.96 153.762 12.29 153.562 12.72C153.372 13.14 153.277 13.65 153.277 14.25C153.277 14.84 153.372 15.35 153.562 15.78C153.762 16.21 154.042 16.54 154.402 16.77C154.762 17 155.197 17.115 155.707 17.115C156.217 17.115 156.652 17 157.012 16.77C157.372 16.54 157.647 16.21 157.837 15.78C158.037 15.35 158.137 14.84 158.137 14.25C158.137 13.65 158.037 13.14 157.837 12.72C157.647 12.29 157.372 11.96 157.012 11.73C156.652 11.5 156.217 11.385 155.707 11.385ZM162.736 7.05V16.095C162.736 16.475 162.806 16.74 162.946 16.89C163.086 17.03 163.311 17.1 163.621 17.1C163.821 17.1 163.986 17.085 164.116 17.055C164.246 17.025 164.421 16.97 164.641 16.89L164.446 17.94C164.286 18.01 164.111 18.06 163.921 18.09C163.731 18.13 163.536 18.15 163.336 18.15C162.726 18.15 162.271 17.985 161.971 17.655C161.681 17.325 161.536 16.82 161.536 16.14V7.05H162.736ZM169.286 10.35C169.996 10.35 170.621 10.505 171.161 10.815C171.711 11.125 172.141 11.575 172.451 12.165C172.761 12.745 172.916 13.44 172.916 14.25C172.916 15.06 172.761 15.76 172.451 16.35C172.141 16.93 171.711 17.375 171.161 17.685C170.621 17.995 169.996 18.15 169.286 18.15C168.586 18.15 167.961 17.995 167.411 17.685C166.861 17.375 166.431 16.93 166.121 16.35C165.811 15.76 165.656 15.06 165.656 14.25C165.656 13.44 165.811 12.745 166.121 12.165C166.431 11.575 166.861 11.125 167.411 10.815C167.961 10.505 168.586 10.35 169.286 10.35ZM169.286 11.385C168.776 11.385 168.341 11.5 167.981 11.73C167.621 11.96 167.341 12.29 167.141 12.72C166.951 13.14 166.856 13.65 166.856 14.25C166.856 14.84 166.951 15.35 167.141 15.78C167.341 16.21 167.621 16.54 167.981 16.77C168.341 17 168.776 17.115 169.286 17.115C169.796 17.115 170.231 17 170.591 16.77C170.951 16.54 171.226 16.21 171.416 15.78C171.616 15.35 171.716 14.84 171.716 14.25C171.716 13.65 171.616 13.14 171.416 12.72C171.226 12.29 170.951 11.96 170.591 11.73C170.231 11.5 169.796 11.385 169.286 11.385ZM175.175 18V10.5H176.15L176.315 11.73C176.525 11.27 176.83 10.925 177.23 10.695C177.64 10.465 178.135 10.35 178.715 10.35C178.845 10.35 178.985 10.36 179.135 10.38C179.295 10.4 179.43 10.44 179.54 10.5L179.33 11.595C179.22 11.555 179.1 11.525 178.97 11.505C178.84 11.485 178.655 11.475 178.415 11.475C178.105 11.475 177.79 11.565 177.47 11.745C177.16 11.925 176.9 12.2 176.69 12.57C176.48 12.93 176.375 13.39 176.375 13.95V18H175.175ZM188.759 18.15C188.029 18.15 187.354 17.995 186.734 17.685C186.124 17.375 185.654 16.935 185.324 16.365L186.344 15.63C186.564 16.09 186.884 16.45 187.304 16.71C187.734 16.97 188.249 17.1 188.849 17.1C189.379 17.1 189.794 17 190.094 16.8C190.394 16.59 190.544 16.32 190.544 15.99C190.544 15.78 190.474 15.59 190.334 15.42C190.204 15.24 189.949 15.11 189.569 15.03L187.769 14.655C187.039 14.505 186.514 14.255 186.194 13.905C185.884 13.555 185.729 13.12 185.729 12.6C185.729 12.19 185.844 11.815 186.074 11.475C186.314 11.135 186.649 10.865 187.079 10.665C187.519 10.455 188.034 10.35 188.624 10.35C189.364 10.35 189.989 10.495 190.499 10.785C191.009 11.075 191.389 11.485 191.639 12.015L190.634 12.675C190.464 12.235 190.189 11.915 189.809 11.715C189.429 11.505 189.034 11.4 188.624 11.4C188.264 11.4 187.954 11.45 187.694 11.55C187.444 11.65 187.249 11.79 187.109 11.97C186.979 12.14 186.914 12.335 186.914 12.555C186.914 12.775 186.989 12.98 187.139 13.17C187.289 13.35 187.569 13.48 187.979 13.56L189.854 13.95C190.554 14.09 191.044 14.32 191.324 14.64C191.604 14.96 191.744 15.35 191.744 15.81C191.744 16.28 191.619 16.695 191.369 17.055C191.119 17.405 190.769 17.675 190.319 17.865C189.869 18.055 189.349 18.15 188.759 18.15ZM194.569 9.06C194.299 9.06 194.079 8.98 193.909 8.82C193.749 8.65 193.669 8.43 193.669 8.16C193.669 7.89 193.749 7.675 193.909 7.515C194.079 7.345 194.299 7.26 194.569 7.26C194.839 7.26 195.054 7.345 195.214 7.515C195.384 7.675 195.469 7.89 195.469 8.16C195.469 8.43 195.384 8.65 195.214 8.82C195.054 8.98 194.839 9.06 194.569 9.06ZM195.169 10.5V18H193.969V10.5H195.169ZM199.723 8.37V15.93C199.723 16.3 199.828 16.575 200.038 16.755C200.248 16.935 200.518 17.025 200.848 17.025C201.138 17.025 201.388 16.975 201.598 16.875C201.808 16.775 201.998 16.64 202.168 16.47L202.588 17.475C202.358 17.685 202.083 17.85 201.763 17.97C201.453 18.09 201.093 18.15 200.683 18.15C200.303 18.15 199.948 18.085 199.618 17.955C199.288 17.815 199.023 17.6 198.823 17.31C198.633 17.01 198.533 16.62 198.523 16.14V8.7L199.723 8.37ZM202.453 10.5V11.535H197.023V10.5H202.453Z" fill="#212529"/>
<path d="M19.8999 42.2031C20.0066 42.0943 20.1338 42.0079 20.2743 41.9489C20.4148 41.8899 20.5656 41.8595 20.7179 41.8595C20.8703 41.8595 21.0211 41.8899 21.1615 41.9489C21.302 42.0079 21.4292 42.0943 21.5359 42.2031C21.9828 42.6547 21.989 43.3844 21.5515 43.8438L12.3124 54.7656C12.2075 54.8808 12.0802 54.9734 11.9383 55.0377C11.7964 55.102 11.6429 55.1367 11.4871 55.1396C11.3314 55.1425 11.1766 55.1136 11.0324 55.0547C10.8882 54.9958 10.7575 54.908 10.6484 54.7969L5.0265 49.1C4.80968 48.8789 4.68823 48.5816 4.68823 48.2719C4.68823 47.9622 4.80968 47.6649 5.0265 47.4438C5.13314 47.335 5.26041 47.2485 5.40086 47.1895C5.54131 47.1305 5.69212 47.1001 5.84447 47.1001C5.99681 47.1001 6.14763 47.1305 6.28808 47.1895C6.42853 47.2485 6.5558 47.335 6.66244 47.4438L11.4312 52.2766L19.8687 42.2375C19.8784 42.2254 19.8888 42.2139 19.8999 42.2031Z" fill="#74C69D"/>
<path d="M38.9777 52.875H44.6477V54H37.7777V44.1H38.9777V52.875ZM49.4028 46.35C50.1128 46.35 50.7378 46.505 51.2778 46.815C51.8278 47.125 52.2578 47.575 52.5678 48.165C52.8778 48.745 53.0328 49.44 53.0328 50.25C53.0328 51.06 52.8778 51.76 52.5678 52.35C52.2578 52.93 51.8278 53.375 51.2778 53.685C50.7378 53.995 50.1128 54.15 49.4028 54.15C48.7028 54.15 48.0778 53.995 47.5278 53.685C46.9778 53.375 46.5478 52.93 46.2378 52.35C45.9278 51.76 45.7728 51.06 45.7728 50.25C45.7728 49.44 45.9278 48.745 46.2378 48.165C46.5478 47.575 46.9778 47.125 47.5278 46.815C48.0778 46.505 48.7028 46.35 49.4028 46.35ZM49.4028 47.385C48.8928 47.385 48.4578 47.5 48.0978 47.73C47.7378 47.96 47.4578 48.29 47.2578 48.72C47.0678 49.14 46.9728 49.65 46.9728 50.25C46.9728 50.84 47.0678 51.35 47.2578 51.78C47.4578 52.21 47.7378 52.54 48.0978 52.77C48.4578 53 48.8928 53.115 49.4028 53.115C49.9128 53.115 50.3478 53 50.7078 52.77C51.0678 52.54 51.3428 52.21 51.5328 51.78C51.7328 51.35 51.8328 50.84 51.8328 50.25C51.8328 49.65 51.7328 49.14 51.5328 48.72C51.3428 48.29 51.0678 47.96 50.7078 47.73C50.3478 47.5 49.9128 47.385 49.4028 47.385ZM55.292 54V46.5H56.267L56.432 47.73C56.642 47.27 56.947 46.925 57.347 46.695C57.757 46.465 58.252 46.35 58.832 46.35C58.962 46.35 59.102 46.36 59.252 46.38C59.412 46.4 59.547 46.44 59.657 46.5L59.447 47.595C59.337 47.555 59.217 47.525 59.087 47.505C58.957 47.485 58.772 47.475 58.532 47.475C58.222 47.475 57.907 47.565 57.587 47.745C57.277 47.925 57.017 48.2 56.807 48.57C56.597 48.93 56.492 49.39 56.492 49.95V54H55.292ZM64.3156 54.15C63.6056 54.15 62.9706 53.995 62.4106 53.685C61.8606 53.375 61.4306 52.93 61.1206 52.35C60.8106 51.76 60.6556 51.06 60.6556 50.25C60.6556 49.44 60.8106 48.745 61.1206 48.165C61.4306 47.575 61.8556 47.125 62.3956 46.815C62.9356 46.505 63.5506 46.35 64.2406 46.35C64.9406 46.35 65.5356 46.5 66.0256 46.8C66.5256 47.1 66.9056 47.51 67.1656 48.03C67.4256 48.54 67.5556 49.115 67.5556 49.755C67.5556 49.925 67.5506 50.08 67.5406 50.22C67.5306 50.36 67.5156 50.485 67.4956 50.595H61.4356V49.53H66.9706L66.3556 49.65C66.3556 48.93 66.1556 48.375 65.7556 47.985C65.3656 47.595 64.8506 47.4 64.2106 47.4C63.7206 47.4 63.2956 47.515 62.9356 47.745C62.5856 47.965 62.3106 48.29 62.1106 48.72C61.9206 49.14 61.8256 49.65 61.8256 50.25C61.8256 50.84 61.9256 51.35 62.1256 51.78C62.3256 52.21 62.6056 52.54 62.9656 52.77C63.3356 52.99 63.7756 53.1 64.2856 53.1C64.8356 53.1 65.2806 52.995 65.6206 52.785C65.9706 52.575 66.2506 52.29 66.4606 51.93L67.4056 52.485C67.2156 52.825 66.9706 53.12 66.6706 53.37C66.3806 53.62 66.0356 53.815 65.6356 53.955C65.2456 54.085 64.8056 54.15 64.3156 54.15ZM69.8379 54V46.5H70.8879L70.9629 47.67C71.2329 47.21 71.5829 46.875 72.0129 46.665C72.4529 46.455 72.9029 46.35 73.3629 46.35C73.8929 46.35 74.3929 46.47 74.8629 46.71C75.3329 46.95 75.6929 47.32 75.9429 47.82C76.1029 47.48 76.3279 47.205 76.6179 46.995C76.9079 46.775 77.2229 46.615 77.5629 46.515C77.9129 46.405 78.2429 46.35 78.5529 46.35C79.0329 46.35 79.4879 46.45 79.9179 46.65C80.3579 46.85 80.7179 47.16 80.9979 47.58C81.2779 48 81.4179 48.54 81.4179 49.2V54H80.2179V49.32C80.2179 48.64 80.0479 48.15 79.7079 47.85C79.3679 47.55 78.9479 47.4 78.4479 47.4C78.0579 47.4 77.6929 47.495 77.3529 47.685C77.0129 47.875 76.7379 48.155 76.5279 48.525C76.3279 48.895 76.2279 49.35 76.2279 49.89V54H75.0279V49.32C75.0279 48.64 74.8579 48.15 74.5179 47.85C74.1779 47.55 73.7579 47.4 73.2579 47.4C72.9279 47.4 72.5879 47.49 72.2379 47.67C71.8979 47.84 71.6129 48.115 71.3829 48.495C71.1529 48.875 71.0379 49.375 71.0379 49.995V54H69.8379ZM89.8471 45.06C89.5771 45.06 89.3571 44.98 89.1871 44.82C89.0271 44.65 88.9471 44.43 88.9471 44.16C88.9471 43.89 89.0271 43.675 89.1871 43.515C89.3571 43.345 89.5771 43.26 89.8471 43.26C90.1171 43.26 90.3321 43.345 90.4921 43.515C90.6621 43.675 90.7471 43.89 90.7471 44.16C90.7471 44.43 90.6621 44.65 90.4921 44.82C90.3321 44.98 90.1171 45.06 89.8471 45.06ZM90.4471 46.5V54H89.2471V46.5H90.4471ZM93.2314 57.15V46.5H94.2814L94.3864 48.33L94.2214 48.12C94.3514 47.77 94.5464 47.465 94.8064 47.205C95.0664 46.935 95.3814 46.725 95.7514 46.575C96.1214 46.425 96.5214 46.35 96.9514 46.35C97.5614 46.35 98.1214 46.505 98.6314 46.815C99.1514 47.125 99.5664 47.57 99.8764 48.15C100.186 48.73 100.341 49.43 100.341 50.25C100.341 51.06 100.181 51.76 99.8614 52.35C99.5514 52.93 99.1364 53.375 98.6164 53.685C98.0964 53.995 97.5264 54.15 96.9064 54.15C96.2864 54.15 95.7414 54 95.2714 53.7C94.8114 53.39 94.4814 53 94.2814 52.53L94.4314 52.305V57.15H93.2314ZM96.7864 53.1C97.5264 53.1 98.1014 52.84 98.5114 52.32C98.9314 51.8 99.1414 51.11 99.1414 50.25C99.1414 49.39 98.9364 48.7 98.5264 48.18C98.1264 47.66 97.5614 47.4 96.8314 47.4C96.3514 47.4 95.9314 47.52 95.5714 47.76C95.2114 47.99 94.9314 48.32 94.7314 48.75C94.5314 49.17 94.4314 49.67 94.4314 50.25C94.4314 50.82 94.5264 51.32 94.7164 51.75C94.9164 52.18 95.1914 52.515 95.5414 52.755C95.9014 52.985 96.3164 53.1 96.7864 53.1ZM105.336 54.15C104.606 54.15 103.931 53.995 103.311 53.685C102.701 53.375 102.231 52.935 101.901 52.365L102.921 51.63C103.141 52.09 103.461 52.45 103.881 52.71C104.311 52.97 104.826 53.1 105.426 53.1C105.956 53.1 106.371 53 106.671 52.8C106.971 52.59 107.121 52.32 107.121 51.99C107.121 51.78 107.051 51.59 106.911 51.42C106.781 51.24 106.526 51.11 106.146 51.03L104.346 50.655C103.616 50.505 103.091 50.255 102.771 49.905C102.461 49.555 102.306 49.12 102.306 48.6C102.306 48.19 102.421 47.815 102.651 47.475C102.891 47.135 103.226 46.865 103.656 46.665C104.096 46.455 104.611 46.35 105.201 46.35C105.941 46.35 106.566 46.495 107.076 46.785C107.586 47.075 107.966 47.485 108.216 48.015L107.211 48.675C107.041 48.235 106.766 47.915 106.386 47.715C106.006 47.505 105.611 47.4 105.201 47.4C104.841 47.4 104.531 47.45 104.271 47.55C104.021 47.65 103.826 47.79 103.686 47.97C103.556 48.14 103.491 48.335 103.491 48.555C103.491 48.775 103.566 48.98 103.716 49.17C103.866 49.35 104.146 49.48 104.556 49.56L106.431 49.95C107.131 50.09 107.621 50.32 107.901 50.64C108.181 50.96 108.321 51.35 108.321 51.81C108.321 52.28 108.196 52.695 107.946 53.055C107.696 53.405 107.346 53.675 106.896 53.865C106.446 54.055 105.926 54.15 105.336 54.15ZM113.261 54.15C112.781 54.15 112.326 54.06 111.896 53.88C111.476 53.7 111.131 53.41 110.861 53.01C110.601 52.6 110.471 52.07 110.471 51.42V46.5H111.671V51.105C111.671 51.865 111.836 52.39 112.166 52.68C112.496 52.96 112.961 53.1 113.561 53.1C113.841 53.1 114.116 53.055 114.386 52.965C114.656 52.865 114.896 52.715 115.106 52.515C115.326 52.305 115.496 52.04 115.616 51.72C115.746 51.4 115.811 51.02 115.811 50.58V46.5H117.011V54H115.961L115.886 52.86C115.626 53.31 115.271 53.64 114.821 53.85C114.381 54.05 113.861 54.15 113.261 54.15ZM119.804 54V46.5H120.854L120.929 47.67C121.199 47.21 121.549 46.875 121.979 46.665C122.419 46.455 122.869 46.35 123.329 46.35C123.859 46.35 124.359 46.47 124.829 46.71C125.299 46.95 125.659 47.32 125.909 47.82C126.069 47.48 126.294 47.205 126.584 46.995C126.874 46.775 127.189 46.615 127.529 46.515C127.879 46.405 128.209 46.35 128.519 46.35C128.999 46.35 129.454 46.45 129.884 46.65C130.324 46.85 130.684 47.16 130.964 47.58C131.244 48 131.384 48.54 131.384 49.2V54H130.184V49.32C130.184 48.64 130.014 48.15 129.674 47.85C129.334 47.55 128.914 47.4 128.414 47.4C128.024 47.4 127.659 47.495 127.319 47.685C126.979 47.875 126.704 48.155 126.494 48.525C126.294 48.895 126.194 49.35 126.194 49.89V54H124.994V49.32C124.994 48.64 124.824 48.15 124.484 47.85C124.144 47.55 123.724 47.4 123.224 47.4C122.894 47.4 122.554 47.49 122.204 47.67C121.864 47.84 121.579 48.115 121.349 48.495C121.119 48.875 121.004 49.375 121.004 49.995V54H119.804ZM134.701 52.2C134.941 52.2 135.141 52.265 135.301 52.395C135.471 52.515 135.601 52.685 135.691 52.905C135.781 53.115 135.826 53.365 135.826 53.655C135.826 53.985 135.766 54.31 135.646 54.63C135.536 54.95 135.361 55.245 135.121 55.515C134.881 55.785 134.571 56.01 134.191 56.19L133.561 55.605C133.831 55.515 134.066 55.39 134.266 55.23C134.476 55.07 134.646 54.89 134.776 54.69C134.906 54.49 134.991 54.285 135.031 54.075L134.971 54.045C134.931 54.075 134.881 54.1 134.821 54.12C134.761 54.14 134.671 54.15 134.551 54.15C134.431 54.15 134.306 54.115 134.176 54.045C134.056 53.975 133.951 53.875 133.861 53.745C133.771 53.605 133.726 53.425 133.726 53.205C133.726 53.025 133.771 52.86 133.861 52.71C133.951 52.55 134.066 52.425 134.206 52.335C134.356 52.245 134.521 52.2 134.701 52.2ZM146.122 54.15C145.502 54.15 144.932 53.995 144.412 53.685C143.892 53.375 143.477 52.93 143.167 52.35C142.857 51.76 142.702 51.06 142.702 50.25C142.702 49.42 142.867 48.715 143.197 48.135C143.527 47.555 143.962 47.115 144.502 46.815C145.042 46.505 145.622 46.35 146.242 46.35C146.862 46.35 147.397 46.51 147.847 46.83C148.307 47.15 148.612 47.575 148.762 48.105L148.612 48.21V43.05H149.812V54H148.762L148.657 52.185L148.822 52.095C148.752 52.535 148.582 52.91 148.312 53.22C148.052 53.52 147.727 53.75 147.337 53.91C146.957 54.07 146.552 54.15 146.122 54.15ZM146.242 53.1C146.722 53.1 147.137 52.98 147.487 52.74C147.847 52.5 148.122 52.16 148.312 51.72C148.512 51.27 148.612 50.745 148.612 50.145C148.612 49.575 148.512 49.085 148.312 48.675C148.122 48.265 147.852 47.95 147.502 47.73C147.162 47.51 146.762 47.4 146.302 47.4C145.542 47.4 144.952 47.66 144.532 48.18C144.112 48.7 143.902 49.39 143.902 50.25C143.902 51.11 144.107 51.8 144.517 52.32C144.927 52.84 145.502 53.1 146.242 53.1ZM155.707 46.35C156.417 46.35 157.042 46.505 157.582 46.815C158.132 47.125 158.562 47.575 158.872 48.165C159.182 48.745 159.337 49.44 159.337 50.25C159.337 51.06 159.182 51.76 158.872 52.35C158.562 52.93 158.132 53.375 157.582 53.685C157.042 53.995 156.417 54.15 155.707 54.15C155.007 54.15 154.382 53.995 153.832 53.685C153.282 53.375 152.852 52.93 152.542 52.35C152.232 51.76 152.077 51.06 152.077 50.25C152.077 49.44 152.232 48.745 152.542 48.165C152.852 47.575 153.282 47.125 153.832 46.815C154.382 46.505 155.007 46.35 155.707 46.35ZM155.707 47.385C155.197 47.385 154.762 47.5 154.402 47.73C154.042 47.96 153.762 48.29 153.562 48.72C153.372 49.14 153.277 49.65 153.277 50.25C153.277 50.84 153.372 51.35 153.562 51.78C153.762 52.21 154.042 52.54 154.402 52.77C154.762 53 155.197 53.115 155.707 53.115C156.217 53.115 156.652 53 157.012 52.77C157.372 52.54 157.647 52.21 157.837 51.78C158.037 51.35 158.137 50.84 158.137 50.25C158.137 49.65 158.037 49.14 157.837 48.72C157.647 48.29 157.372 47.96 157.012 47.73C156.652 47.5 156.217 47.385 155.707 47.385ZM162.736 43.05V52.095C162.736 52.475 162.806 52.74 162.946 52.89C163.086 53.03 163.311 53.1 163.621 53.1C163.821 53.1 163.986 53.085 164.116 53.055C164.246 53.025 164.421 52.97 164.641 52.89L164.446 53.94C164.286 54.01 164.111 54.06 163.921 54.09C163.731 54.13 163.536 54.15 163.336 54.15C162.726 54.15 162.271 53.985 161.971 53.655C161.681 53.325 161.536 52.82 161.536 52.14V43.05H162.736ZM169.286 46.35C169.996 46.35 170.621 46.505 171.161 46.815C171.711 47.125 172.141 47.575 172.451 48.165C172.761 48.745 172.916 49.44 172.916 50.25C172.916 51.06 172.761 51.76 172.451 52.35C172.141 52.93 171.711 53.375 171.161 53.685C170.621 53.995 169.996 54.15 169.286 54.15C168.586 54.15 167.961 53.995 167.411 53.685C166.861 53.375 166.431 52.93 166.121 52.35C165.811 51.76 165.656 51.06 165.656 50.25C165.656 49.44 165.811 48.745 166.121 48.165C166.431 47.575 166.861 47.125 167.411 46.815C167.961 46.505 168.586 46.35 169.286 46.35ZM169.286 47.385C168.776 47.385 168.341 47.5 167.981 47.73C167.621 47.96 167.341 48.29 167.141 48.72C166.951 49.14 166.856 49.65 166.856 50.25C166.856 50.84 166.951 51.35 167.141 51.78C167.341 52.21 167.621 52.54 167.981 52.77C168.341 53 168.776 53.115 169.286 53.115C169.796 53.115 170.231 53 170.591 52.77C170.951 52.54 171.226 52.21 171.416 51.78C171.616 51.35 171.716 50.84 171.716 50.25C171.716 49.65 171.616 49.14 171.416 48.72C171.226 48.29 170.951 47.96 170.591 47.73C170.231 47.5 169.796 47.385 169.286 47.385ZM175.175 54V46.5H176.15L176.315 47.73C176.525 47.27 176.83 46.925 177.23 46.695C177.64 46.465 178.135 46.35 178.715 46.35C178.845 46.35 178.985 46.36 179.135 46.38C179.295 46.4 179.43 46.44 179.54 46.5L179.33 47.595C179.22 47.555 179.1 47.525 178.97 47.505C178.84 47.485 178.655 47.475 178.415 47.475C178.105 47.475 177.79 47.565 177.47 47.745C177.16 47.925 176.9 48.2 176.69 48.57C176.48 48.93 176.375 49.39 176.375 49.95V54H175.175ZM188.759 54.15C188.029 54.15 187.354 53.995 186.734 53.685C186.124 53.375 185.654 52.935 185.324 52.365L186.344 51.63C186.564 52.09 186.884 52.45 187.304 52.71C187.734 52.97 188.249 53.1 188.849 53.1C189.379 53.1 189.794 53 190.094 52.8C190.394 52.59 190.544 52.32 190.544 51.99C190.544 51.78 190.474 51.59 190.334 51.42C190.204 51.24 189.949 51.11 189.569 51.03L187.769 50.655C187.039 50.505 186.514 50.255 186.194 49.905C185.884 49.555 185.729 49.12 185.729 48.6C185.729 48.19 185.844 47.815 186.074 47.475C186.314 47.135 186.649 46.865 187.079 46.665C187.519 46.455 188.034 46.35 188.624 46.35C189.364 46.35 189.989 46.495 190.499 46.785C191.009 47.075 191.389 47.485 191.639 48.015L190.634 48.675C190.464 48.235 190.189 47.915 189.809 47.715C189.429 47.505 189.034 47.4 188.624 47.4C188.264 47.4 187.954 47.45 187.694 47.55C187.444 47.65 187.249 47.79 187.109 47.97C186.979 48.14 186.914 48.335 186.914 48.555C186.914 48.775 186.989 48.98 187.139 49.17C187.289 49.35 187.569 49.48 187.979 49.56L189.854 49.95C190.554 50.09 191.044 50.32 191.324 50.64C191.604 50.96 191.744 51.35 191.744 51.81C191.744 52.28 191.619 52.695 191.369 53.055C191.119 53.405 190.769 53.675 190.319 53.865C189.869 54.055 189.349 54.15 188.759 54.15ZM194.569 45.06C194.299 45.06 194.079 44.98 193.909 44.82C193.749 44.65 193.669 44.43 193.669 44.16C193.669 43.89 193.749 43.675 193.909 43.515C194.079 43.345 194.299 43.26 194.569 43.26C194.839 43.26 195.054 43.345 195.214 43.515C195.384 43.675 195.469 43.89 195.469 44.16C195.469 44.43 195.384 44.65 195.214 44.82C195.054 44.98 194.839 45.06 194.569 45.06ZM195.169 46.5V54H193.969V46.5H195.169ZM199.723 44.37V51.93C199.723 52.3 199.828 52.575 200.038 52.755C200.248 52.935 200.518 53.025 200.848 53.025C201.138 53.025 201.388 52.975 201.598 52.875C201.808 52.775 201.998 52.64 202.168 52.47L202.588 53.475C202.358 53.685 202.083 53.85 201.763 53.97C201.453 54.09 201.093 54.15 200.683 54.15C200.303 54.15 199.948 54.085 199.618 53.955C199.288 53.815 199.023 53.6 198.823 53.31C198.633 53.01 198.533 52.62 198.523 52.14V44.7L199.723 44.37ZM202.453 46.5V47.535H197.023V46.5H202.453Z" fill="#212529"/>
<path d="M19.8999 78.2031C20.0066 78.0943 20.1338 78.0079 20.2743 77.9489C20.4148 77.8899 20.5656 77.8595 20.7179 77.8595C20.8703 77.8595 21.0211 77.8899 21.1615 77.9489C21.302 78.0079 21.4292 78.0943 21.5359 78.2031C21.9828 78.6547 21.989 79.3844 21.5515 79.8438L12.3124 90.7656C12.2075 90.8808 12.0802 90.9734 11.9383 91.0377C11.7964 91.102 11.6429 91.1367 11.4871 91.1396C11.3314 91.1425 11.1766 91.1136 11.0324 91.0547C10.8882 90.9958 10.7575 90.908 10.6484 90.7969L5.0265 85.1C4.80968 84.8789 4.68823 84.5816 4.68823 84.2719C4.68823 83.9622 4.80968 83.6649 5.0265 83.4438C5.13314 83.335 5.26041 83.2485 5.40086 83.1895C5.54131 83.1305 5.69212 83.1001 5.84447 83.1001C5.99681 83.1001 6.14763 83.1305 6.28808 83.1895C6.42853 83.2485 6.5558 83.335 6.66244 83.4438L11.4312 88.2766L19.8687 78.2375C19.8784 78.2254 19.8888 78.2139 19.8999 78.2031Z" fill="#74C69D"/>
<path d="M38.9777 88.875H44.6477V90H37.7777V80.1H38.9777V88.875ZM49.4028 82.35C50.1128 82.35 50.7378 82.505 51.2778 82.815C51.8278 83.125 52.2578 83.575 52.5678 84.165C52.8778 84.745 53.0328 85.44 53.0328 86.25C53.0328 87.06 52.8778 87.76 52.5678 88.35C52.2578 88.93 51.8278 89.375 51.2778 89.685C50.7378 89.995 50.1128 90.15 49.4028 90.15C48.7028 90.15 48.0778 89.995 47.5278 89.685C46.9778 89.375 46.5478 88.93 46.2378 88.35C45.9278 87.76 45.7728 87.06 45.7728 86.25C45.7728 85.44 45.9278 84.745 46.2378 84.165C46.5478 83.575 46.9778 83.125 47.5278 82.815C48.0778 82.505 48.7028 82.35 49.4028 82.35ZM49.4028 83.385C48.8928 83.385 48.4578 83.5 48.0978 83.73C47.7378 83.96 47.4578 84.29 47.2578 84.72C47.0678 85.14 46.9728 85.65 46.9728 86.25C46.9728 86.84 47.0678 87.35 47.2578 87.78C47.4578 88.21 47.7378 88.54 48.0978 88.77C48.4578 89 48.8928 89.115 49.4028 89.115C49.9128 89.115 50.3478 89 50.7078 88.77C51.0678 88.54 51.3428 88.21 51.5328 87.78C51.7328 87.35 51.8328 86.84 51.8328 86.25C51.8328 85.65 51.7328 85.14 51.5328 84.72C51.3428 84.29 51.0678 83.96 50.7078 83.73C50.3478 83.5 49.9128 83.385 49.4028 83.385ZM55.292 90V82.5H56.267L56.432 83.73C56.642 83.27 56.947 82.925 57.347 82.695C57.757 82.465 58.252 82.35 58.832 82.35C58.962 82.35 59.102 82.36 59.252 82.38C59.412 82.4 59.547 82.44 59.657 82.5L59.447 83.595C59.337 83.555 59.217 83.525 59.087 83.505C58.957 83.485 58.772 83.475 58.532 83.475C58.222 83.475 57.907 83.565 57.587 83.745C57.277 83.925 57.017 84.2 56.807 84.57C56.597 84.93 56.492 85.39 56.492 85.95V90H55.292ZM64.3156 90.15C63.6056 90.15 62.9706 89.995 62.4106 89.685C61.8606 89.375 61.4306 88.93 61.1206 88.35C60.8106 87.76 60.6556 87.06 60.6556 86.25C60.6556 85.44 60.8106 84.745 61.1206 84.165C61.4306 83.575 61.8556 83.125 62.3956 82.815C62.9356 82.505 63.5506 82.35 64.2406 82.35C64.9406 82.35 65.5356 82.5 66.0256 82.8C66.5256 83.1 66.9056 83.51 67.1656 84.03C67.4256 84.54 67.5556 85.115 67.5556 85.755C67.5556 85.925 67.5506 86.08 67.5406 86.22C67.5306 86.36 67.5156 86.485 67.4956 86.595H61.4356V85.53H66.9706L66.3556 85.65C66.3556 84.93 66.1556 84.375 65.7556 83.985C65.3656 83.595 64.8506 83.4 64.2106 83.4C63.7206 83.4 63.2956 83.515 62.9356 83.745C62.5856 83.965 62.3106 84.29 62.1106 84.72C61.9206 85.14 61.8256 85.65 61.8256 86.25C61.8256 86.84 61.9256 87.35 62.1256 87.78C62.3256 88.21 62.6056 88.54 62.9656 88.77C63.3356 88.99 63.7756 89.1 64.2856 89.1C64.8356 89.1 65.2806 88.995 65.6206 88.785C65.9706 88.575 66.2506 88.29 66.4606 87.93L67.4056 88.485C67.2156 88.825 66.9706 89.12 66.6706 89.37C66.3806 89.62 66.0356 89.815 65.6356 89.955C65.2456 90.085 64.8056 90.15 64.3156 90.15ZM69.8379 90V82.5H70.8879L70.9629 83.67C71.2329 83.21 71.5829 82.875 72.0129 82.665C72.4529 82.455 72.9029 82.35 73.3629 82.35C73.8929 82.35 74.3929 82.47 74.8629 82.71C75.3329 82.95 75.6929 83.32 75.9429 83.82C76.1029 83.48 76.3279 83.205 76.6179 82.995C76.9079 82.775 77.2229 82.615 77.5629 82.515C77.9129 82.405 78.2429 82.35 78.5529 82.35C79.0329 82.35 79.4879 82.45 79.9179 82.65C80.3579 82.85 80.7179 83.16 80.9979 83.58C81.2779 84 81.4179 84.54 81.4179 85.2V90H80.2179V85.32C80.2179 84.64 80.0479 84.15 79.7079 83.85C79.3679 83.55 78.9479 83.4 78.4479 83.4C78.0579 83.4 77.6929 83.495 77.3529 83.685C77.0129 83.875 76.7379 84.155 76.5279 84.525C76.3279 84.895 76.2279 85.35 76.2279 85.89V90H75.0279V85.32C75.0279 84.64 74.8579 84.15 74.5179 83.85C74.1779 83.55 73.7579 83.4 73.2579 83.4C72.9279 83.4 72.5879 83.49 72.2379 83.67C71.8979 83.84 71.6129 84.115 71.3829 84.495C71.1529 84.875 71.0379 85.375 71.0379 85.995V90H69.8379ZM89.8471 81.06C89.5771 81.06 89.3571 80.98 89.1871 80.82C89.0271 80.65 88.9471 80.43 88.9471 80.16C88.9471 79.89 89.0271 79.675 89.1871 79.515C89.3571 79.345 89.5771 79.26 89.8471 79.26C90.1171 79.26 90.3321 79.345 90.4921 79.515C90.6621 79.675 90.7471 79.89 90.7471 80.16C90.7471 80.43 90.6621 80.65 90.4921 80.82C90.3321 80.98 90.1171 81.06 89.8471 81.06ZM90.4471 82.5V90H89.2471V82.5H90.4471ZM93.2314 93.15V82.5H94.2814L94.3864 84.33L94.2214 84.12C94.3514 83.77 94.5464 83.465 94.8064 83.205C95.0664 82.935 95.3814 82.725 95.7514 82.575C96.1214 82.425 96.5214 82.35 96.9514 82.35C97.5614 82.35 98.1214 82.505 98.6314 82.815C99.1514 83.125 99.5664 83.57 99.8764 84.15C100.186 84.73 100.341 85.43 100.341 86.25C100.341 87.06 100.181 87.76 99.8614 88.35C99.5514 88.93 99.1364 89.375 98.6164 89.685C98.0964 89.995 97.5264 90.15 96.9064 90.15C96.2864 90.15 95.7414 90 95.2714 89.7C94.8114 89.39 94.4814 89 94.2814 88.53L94.4314 88.305V93.15H93.2314ZM96.7864 89.1C97.5264 89.1 98.1014 88.84 98.5114 88.32C98.9314 87.8 99.1414 87.11 99.1414 86.25C99.1414 85.39 98.9364 84.7 98.5264 84.18C98.1264 83.66 97.5614 83.4 96.8314 83.4C96.3514 83.4 95.9314 83.52 95.5714 83.76C95.2114 83.99 94.9314 84.32 94.7314 84.75C94.5314 85.17 94.4314 85.67 94.4314 86.25C94.4314 86.82 94.5264 87.32 94.7164 87.75C94.9164 88.18 95.1914 88.515 95.5414 88.755C95.9014 88.985 96.3164 89.1 96.7864 89.1ZM105.336 90.15C104.606 90.15 103.931 89.995 103.311 89.685C102.701 89.375 102.231 88.935 101.901 88.365L102.921 87.63C103.141 88.09 103.461 88.45 103.881 88.71C104.311 88.97 104.826 89.1 105.426 89.1C105.956 89.1 106.371 89 106.671 88.8C106.971 88.59 107.121 88.32 107.121 87.99C107.121 87.78 107.051 87.59 106.911 87.42C106.781 87.24 106.526 87.11 106.146 87.03L104.346 86.655C103.616 86.505 103.091 86.255 102.771 85.905C102.461 85.555 102.306 85.12 102.306 84.6C102.306 84.19 102.421 83.815 102.651 83.475C102.891 83.135 103.226 82.865 103.656 82.665C104.096 82.455 104.611 82.35 105.201 82.35C105.941 82.35 106.566 82.495 107.076 82.785C107.586 83.075 107.966 83.485 108.216 84.015L107.211 84.675C107.041 84.235 106.766 83.915 106.386 83.715C106.006 83.505 105.611 83.4 105.201 83.4C104.841 83.4 104.531 83.45 104.271 83.55C104.021 83.65 103.826 83.79 103.686 83.97C103.556 84.14 103.491 84.335 103.491 84.555C103.491 84.775 103.566 84.98 103.716 85.17C103.866 85.35 104.146 85.48 104.556 85.56L106.431 85.95C107.131 86.09 107.621 86.32 107.901 86.64C108.181 86.96 108.321 87.35 108.321 87.81C108.321 88.28 108.196 88.695 107.946 89.055C107.696 89.405 107.346 89.675 106.896 89.865C106.446 90.055 105.926 90.15 105.336 90.15ZM113.261 90.15C112.781 90.15 112.326 90.06 111.896 89.88C111.476 89.7 111.131 89.41 110.861 89.01C110.601 88.6 110.471 88.07 110.471 87.42V82.5H111.671V87.105C111.671 87.865 111.836 88.39 112.166 88.68C112.496 88.96 112.961 89.1 113.561 89.1C113.841 89.1 114.116 89.055 114.386 88.965C114.656 88.865 114.896 88.715 115.106 88.515C115.326 88.305 115.496 88.04 115.616 87.72C115.746 87.4 115.811 87.02 115.811 86.58V82.5H117.011V90H115.961L115.886 88.86C115.626 89.31 115.271 89.64 114.821 89.85C114.381 90.05 113.861 90.15 113.261 90.15ZM119.804 90V82.5H120.854L120.929 83.67C121.199 83.21 121.549 82.875 121.979 82.665C122.419 82.455 122.869 82.35 123.329 82.35C123.859 82.35 124.359 82.47 124.829 82.71C125.299 82.95 125.659 83.32 125.909 83.82C126.069 83.48 126.294 83.205 126.584 82.995C126.874 82.775 127.189 82.615 127.529 82.515C127.879 82.405 128.209 82.35 128.519 82.35C128.999 82.35 129.454 82.45 129.884 82.65C130.324 82.85 130.684 83.16 130.964 83.58C131.244 84 131.384 84.54 131.384 85.2V90H130.184V85.32C130.184 84.64 130.014 84.15 129.674 83.85C129.334 83.55 128.914 83.4 128.414 83.4C128.024 83.4 127.659 83.495 127.319 83.685C126.979 83.875 126.704 84.155 126.494 84.525C126.294 84.895 126.194 85.35 126.194 85.89V90H124.994V85.32C124.994 84.64 124.824 84.15 124.484 83.85C124.144 83.55 123.724 83.4 123.224 83.4C122.894 83.4 122.554 83.49 122.204 83.67C121.864 83.84 121.579 84.115 121.349 84.495C121.119 84.875 121.004 85.375 121.004 85.995V90H119.804ZM134.701 88.2C134.941 88.2 135.141 88.265 135.301 88.395C135.471 88.515 135.601 88.685 135.691 88.905C135.781 89.115 135.826 89.365 135.826 89.655C135.826 89.985 135.766 90.31 135.646 90.63C135.536 90.95 135.361 91.245 135.121 91.515C134.881 91.785 134.571 92.01 134.191 92.19L133.561 91.605C133.831 91.515 134.066 91.39 134.266 91.23C134.476 91.07 134.646 90.89 134.776 90.69C134.906 90.49 134.991 90.285 135.031 90.075L134.971 90.045C134.931 90.075 134.881 90.1 134.821 90.12C134.761 90.14 134.671 90.15 134.551 90.15C134.431 90.15 134.306 90.115 134.176 90.045C134.056 89.975 133.951 89.875 133.861 89.745C133.771 89.605 133.726 89.425 133.726 89.205C133.726 89.025 133.771 88.86 133.861 88.71C133.951 88.55 134.066 88.425 134.206 88.335C134.356 88.245 134.521 88.2 134.701 88.2ZM146.122 90.15C145.502 90.15 144.932 89.995 144.412 89.685C143.892 89.375 143.477 88.93 143.167 88.35C142.857 87.76 142.702 87.06 142.702 86.25C142.702 85.42 142.867 84.715 143.197 84.135C143.527 83.555 143.962 83.115 144.502 82.815C145.042 82.505 145.622 82.35 146.242 82.35C146.862 82.35 147.397 82.51 147.847 82.83C148.307 83.15 148.612 83.575 148.762 84.105L148.612 84.21V79.05H149.812V90H148.762L148.657 88.185L148.822 88.095C148.752 88.535 148.582 88.91 148.312 89.22C148.052 89.52 147.727 89.75 147.337 89.91C146.957 90.07 146.552 90.15 146.122 90.15ZM146.242 89.1C146.722 89.1 147.137 88.98 147.487 88.74C147.847 88.5 148.122 88.16 148.312 87.72C148.512 87.27 148.612 86.745 148.612 86.145C148.612 85.575 148.512 85.085 148.312 84.675C148.122 84.265 147.852 83.95 147.502 83.73C147.162 83.51 146.762 83.4 146.302 83.4C145.542 83.4 144.952 83.66 144.532 84.18C144.112 84.7 143.902 85.39 143.902 86.25C143.902 87.11 144.107 87.8 144.517 88.32C144.927 88.84 145.502 89.1 146.242 89.1ZM155.707 82.35C156.417 82.35 157.042 82.505 157.582 82.815C158.132 83.125 158.562 83.575 158.872 84.165C159.182 84.745 159.337 85.44 159.337 86.25C159.337 87.06 159.182 87.76 158.872 88.35C158.562 88.93 158.132 89.375 157.582 89.685C157.042 89.995 156.417 90.15 155.707 90.15C155.007 90.15 154.382 89.995 153.832 89.685C153.282 89.375 152.852 88.93 152.542 88.35C152.232 87.76 152.077 87.06 152.077 86.25C152.077 85.44 152.232 84.745 152.542 84.165C152.852 83.575 153.282 83.125 153.832 82.815C154.382 82.505 155.007 82.35 155.707 82.35ZM155.707 83.385C155.197 83.385 154.762 83.5 154.402 83.73C154.042 83.96 153.762 84.29 153.562 84.72C153.372 85.14 153.277 85.65 153.277 86.25C153.277 86.84 153.372 87.35 153.562 87.78C153.762 88.21 154.042 88.54 154.402 88.77C154.762 89 155.197 89.115 155.707 89.115C156.217 89.115 156.652 89 157.012 88.77C157.372 88.54 157.647 88.21 157.837 87.78C158.037 87.35 158.137 86.84 158.137 86.25C158.137 85.65 158.037 85.14 157.837 84.72C157.647 84.29 157.372 83.96 157.012 83.73C156.652 83.5 156.217 83.385 155.707 83.385ZM162.736 79.05V88.095C162.736 88.475 162.806 88.74 162.946 88.89C163.086 89.03 163.311 89.1 163.621 89.1C163.821 89.1 163.986 89.085 164.116 89.055C164.246 89.025 164.421 88.97 164.641 88.89L164.446 89.94C164.286 90.01 164.111 90.06 163.921 90.09C163.731 90.13 163.536 90.15 163.336 90.15C162.726 90.15 162.271 89.985 161.971 89.655C161.681 89.325 161.536 88.82 161.536 88.14V79.05H162.736ZM169.286 82.35C169.996 82.35 170.621 82.505 171.161 82.815C171.711 83.125 172.141 83.575 172.451 84.165C172.761 84.745 172.916 85.44 172.916 86.25C172.916 87.06 172.761 87.76 172.451 88.35C172.141 88.93 171.711 89.375 171.161 89.685C170.621 89.995 169.996 90.15 169.286 90.15C168.586 90.15 167.961 89.995 167.411 89.685C166.861 89.375 166.431 88.93 166.121 88.35C165.811 87.76 165.656 87.06 165.656 86.25C165.656 85.44 165.811 84.745 166.121 84.165C166.431 83.575 166.861 83.125 167.411 82.815C167.961 82.505 168.586 82.35 169.286 82.35ZM169.286 83.385C168.776 83.385 168.341 83.5 167.981 83.73C167.621 83.96 167.341 84.29 167.141 84.72C166.951 85.14 166.856 85.65 166.856 86.25C166.856 86.84 166.951 87.35 167.141 87.78C167.341 88.21 167.621 88.54 167.981 88.77C168.341 89 168.776 89.115 169.286 89.115C169.796 89.115 170.231 89 170.591 88.77C170.951 88.54 171.226 88.21 171.416 87.78C171.616 87.35 171.716 86.84 171.716 86.25C171.716 85.65 171.616 85.14 171.416 84.72C171.226 84.29 170.951 83.96 170.591 83.73C170.231 83.5 169.796 83.385 169.286 83.385ZM175.175 90V82.5H176.15L176.315 83.73C176.525 83.27 176.83 82.925 177.23 82.695C177.64 82.465 178.135 82.35 178.715 82.35C178.845 82.35 178.985 82.36 179.135 82.38C179.295 82.4 179.43 82.44 179.54 82.5L179.33 83.595C179.22 83.555 179.1 83.525 178.97 83.505C178.84 83.485 178.655 83.475 178.415 83.475C178.105 83.475 177.79 83.565 177.47 83.745C177.16 83.925 176.9 84.2 176.69 84.57C176.48 84.93 176.375 85.39 176.375 85.95V90H175.175ZM188.759 90.15C188.029 90.15 187.354 89.995 186.734 89.685C186.124 89.375 185.654 88.935 185.324 88.365L186.344 87.63C186.564 88.09 186.884 88.45 187.304 88.71C187.734 88.97 188.249 89.1 188.849 89.1C189.379 89.1 189.794 89 190.094 88.8C190.394 88.59 190.544 88.32 190.544 87.99C190.544 87.78 190.474 87.59 190.334 87.42C190.204 87.24 189.949 87.11 189.569 87.03L187.769 86.655C187.039 86.505 186.514 86.255 186.194 85.905C185.884 85.555 185.729 85.12 185.729 84.6C185.729 84.19 185.844 83.815 186.074 83.475C186.314 83.135 186.649 82.865 187.079 82.665C187.519 82.455 188.034 82.35 188.624 82.35C189.364 82.35 189.989 82.495 190.499 82.785C191.009 83.075 191.389 83.485 191.639 84.015L190.634 84.675C190.464 84.235 190.189 83.915 189.809 83.715C189.429 83.505 189.034 83.4 188.624 83.4C188.264 83.4 187.954 83.45 187.694 83.55C187.444 83.65 187.249 83.79 187.109 83.97C186.979 84.14 186.914 84.335 186.914 84.555C186.914 84.775 186.989 84.98 187.139 85.17C187.289 85.35 187.569 85.48 187.979 85.56L189.854 85.95C190.554 86.09 191.044 86.32 191.324 86.64C191.604 86.96 191.744 87.35 191.744 87.81C191.744 88.28 191.619 88.695 191.369 89.055C191.119 89.405 190.769 89.675 190.319 89.865C189.869 90.055 189.349 90.15 188.759 90.15ZM194.569 81.06C194.299 81.06 194.079 80.98 193.909 80.82C193.749 80.65 193.669 80.43 193.669 80.16C193.669 79.89 193.749 79.675 193.909 79.515C194.079 79.345 194.299 79.26 194.569 79.26C194.839 79.26 195.054 79.345 195.214 79.515C195.384 79.675 195.469 79.89 195.469 80.16C195.469 80.43 195.384 80.65 195.214 80.82C195.054 80.98 194.839 81.06 194.569 81.06ZM195.169 82.5V90H193.969V82.5H195.169ZM199.723 80.37V87.93C199.723 88.3 199.828 88.575 200.038 88.755C200.248 88.935 200.518 89.025 200.848 89.025C201.138 89.025 201.388 88.975 201.598 88.875C201.808 88.775 201.998 88.64 202.168 88.47L202.588 89.475C202.358 89.685 202.083 89.85 201.763 89.97C201.453 90.09 201.093 90.15 200.683 90.15C200.303 90.15 199.948 90.085 199.618 89.955C199.288 89.815 199.023 89.6 198.823 89.31C198.633 89.01 198.533 88.62 198.523 88.14V80.7L199.723 80.37ZM202.453 82.5V83.535H197.023V82.5H202.453Z" fill="#212529"/>
<path d="M19.8999 114.203C20.0066 114.094 20.1338 114.008 20.2743 113.949C20.4148 113.89 20.5656 113.859 20.7179 113.859C20.8703 113.859 21.0211 113.89 21.1615 113.949C21.302 114.008 21.4292 114.094 21.5359 114.203C21.9828 114.655 21.989 115.384 21.5515 115.844L12.3124 126.766C12.2075 126.881 12.0802 126.973 11.9383 127.038C11.7964 127.102 11.6429 127.137 11.4871 127.14C11.3314 127.143 11.1766 127.114 11.0324 127.055C10.8882 126.996 10.7575 126.908 10.6484 126.797L5.0265 121.1C4.80968 120.879 4.68823 120.582 4.68823 120.272C4.68823 119.962 4.80968 119.665 5.0265 119.444C5.13314 119.335 5.26041 119.249 5.40086 119.19C5.54131 119.131 5.69212 119.1 5.84447 119.1C5.99681 119.1 6.14763 119.131 6.28808 119.19C6.42853 119.249 6.5558 119.335 6.66244 119.444L11.4312 124.277L19.8687 114.238C19.8784 114.225 19.8888 114.214 19.8999 114.203Z" fill="#74C69D"/>
<path d="M38.9777 124.875H44.6477V126H37.7777V116.1H38.9777V124.875ZM49.4028 118.35C50.1128 118.35 50.7378 118.505 51.2778 118.815C51.8278 119.125 52.2578 119.575 52.5678 120.165C52.8778 120.745 53.0328 121.44 53.0328 122.25C53.0328 123.06 52.8778 123.76 52.5678 124.35C52.2578 124.93 51.8278 125.375 51.2778 125.685C50.7378 125.995 50.1128 126.15 49.4028 126.15C48.7028 126.15 48.0778 125.995 47.5278 125.685C46.9778 125.375 46.5478 124.93 46.2378 124.35C45.9278 123.76 45.7728 123.06 45.7728 122.25C45.7728 121.44 45.9278 120.745 46.2378 120.165C46.5478 119.575 46.9778 119.125 47.5278 118.815C48.0778 118.505 48.7028 118.35 49.4028 118.35ZM49.4028 119.385C48.8928 119.385 48.4578 119.5 48.0978 119.73C47.7378 119.96 47.4578 120.29 47.2578 120.72C47.0678 121.14 46.9728 121.65 46.9728 122.25C46.9728 122.84 47.0678 123.35 47.2578 123.78C47.4578 124.21 47.7378 124.54 48.0978 124.77C48.4578 125 48.8928 125.115 49.4028 125.115C49.9128 125.115 50.3478 125 50.7078 124.77C51.0678 124.54 51.3428 124.21 51.5328 123.78C51.7328 123.35 51.8328 122.84 51.8328 122.25C51.8328 121.65 51.7328 121.14 51.5328 120.72C51.3428 120.29 51.0678 119.96 50.7078 119.73C50.3478 119.5 49.9128 119.385 49.4028 119.385ZM55.292 126V118.5H56.267L56.432 119.73C56.642 119.27 56.947 118.925 57.347 118.695C57.757 118.465 58.252 118.35 58.832 118.35C58.962 118.35 59.102 118.36 59.252 118.38C59.412 118.4 59.547 118.44 59.657 118.5L59.447 119.595C59.337 119.555 59.217 119.525 59.087 119.505C58.957 119.485 58.772 119.475 58.532 119.475C58.222 119.475 57.907 119.565 57.587 119.745C57.277 119.925 57.017 120.2 56.807 120.57C56.597 120.93 56.492 121.39 56.492 121.95V126H55.292ZM64.3156 126.15C63.6056 126.15 62.9706 125.995 62.4106 125.685C61.8606 125.375 61.4306 124.93 61.1206 124.35C60.8106 123.76 60.6556 123.06 60.6556 122.25C60.6556 121.44 60.8106 120.745 61.1206 120.165C61.4306 119.575 61.8556 119.125 62.3956 118.815C62.9356 118.505 63.5506 118.35 64.2406 118.35C64.9406 118.35 65.5356 118.5 66.0256 118.8C66.5256 119.1 66.9056 119.51 67.1656 120.03C67.4256 120.54 67.5556 121.115 67.5556 121.755C67.5556 121.925 67.5506 122.08 67.5406 122.22C67.5306 122.36 67.5156 122.485 67.4956 122.595H61.4356V121.53H66.9706L66.3556 121.65C66.3556 120.93 66.1556 120.375 65.7556 119.985C65.3656 119.595 64.8506 119.4 64.2106 119.4C63.7206 119.4 63.2956 119.515 62.9356 119.745C62.5856 119.965 62.3106 120.29 62.1106 120.72C61.9206 121.14 61.8256 121.65 61.8256 122.25C61.8256 122.84 61.9256 123.35 62.1256 123.78C62.3256 124.21 62.6056 124.54 62.9656 124.77C63.3356 124.99 63.7756 125.1 64.2856 125.1C64.8356 125.1 65.2806 124.995 65.6206 124.785C65.9706 124.575 66.2506 124.29 66.4606 123.93L67.4056 124.485C67.2156 124.825 66.9706 125.12 66.6706 125.37C66.3806 125.62 66.0356 125.815 65.6356 125.955C65.2456 126.085 64.8056 126.15 64.3156 126.15ZM69.8379 126V118.5H70.8879L70.9629 119.67C71.2329 119.21 71.5829 118.875 72.0129 118.665C72.4529 118.455 72.9029 118.35 73.3629 118.35C73.8929 118.35 74.3929 118.47 74.8629 118.71C75.3329 118.95 75.6929 119.32 75.9429 119.82C76.1029 119.48 76.3279 119.205 76.6179 118.995C76.9079 118.775 77.2229 118.615 77.5629 118.515C77.9129 118.405 78.2429 118.35 78.5529 118.35C79.0329 118.35 79.4879 118.45 79.9179 118.65C80.3579 118.85 80.7179 119.16 80.9979 119.58C81.2779 120 81.4179 120.54 81.4179 121.2V126H80.2179V121.32C80.2179 120.64 80.0479 120.15 79.7079 119.85C79.3679 119.55 78.9479 119.4 78.4479 119.4C78.0579 119.4 77.6929 119.495 77.3529 119.685C77.0129 119.875 76.7379 120.155 76.5279 120.525C76.3279 120.895 76.2279 121.35 76.2279 121.89V126H75.0279V121.32C75.0279 120.64 74.8579 120.15 74.5179 119.85C74.1779 119.55 73.7579 119.4 73.2579 119.4C72.9279 119.4 72.5879 119.49 72.2379 119.67C71.8979 119.84 71.6129 120.115 71.3829 120.495C71.1529 120.875 71.0379 121.375 71.0379 121.995V126H69.8379ZM89.8471 117.06C89.5771 117.06 89.3571 116.98 89.1871 116.82C89.0271 116.65 88.9471 116.43 88.9471 116.16C88.9471 115.89 89.0271 115.675 89.1871 115.515C89.3571 115.345 89.5771 115.26 89.8471 115.26C90.1171 115.26 90.3321 115.345 90.4921 115.515C90.6621 115.675 90.7471 115.89 90.7471 116.16C90.7471 116.43 90.6621 116.65 90.4921 116.82C90.3321 116.98 90.1171 117.06 89.8471 117.06ZM90.4471 118.5V126H89.2471V118.5H90.4471ZM93.2314 129.15V118.5H94.2814L94.3864 120.33L94.2214 120.12C94.3514 119.77 94.5464 119.465 94.8064 119.205C95.0664 118.935 95.3814 118.725 95.7514 118.575C96.1214 118.425 96.5214 118.35 96.9514 118.35C97.5614 118.35 98.1214 118.505 98.6314 118.815C99.1514 119.125 99.5664 119.57 99.8764 120.15C100.186 120.73 100.341 121.43 100.341 122.25C100.341 123.06 100.181 123.76 99.8614 124.35C99.5514 124.93 99.1364 125.375 98.6164 125.685C98.0964 125.995 97.5264 126.15 96.9064 126.15C96.2864 126.15 95.7414 126 95.2714 125.7C94.8114 125.39 94.4814 125 94.2814 124.53L94.4314 124.305V129.15H93.2314ZM96.7864 125.1C97.5264 125.1 98.1014 124.84 98.5114 124.32C98.9314 123.8 99.1414 123.11 99.1414 122.25C99.1414 121.39 98.9364 120.7 98.5264 120.18C98.1264 119.66 97.5614 119.4 96.8314 119.4C96.3514 119.4 95.9314 119.52 95.5714 119.76C95.2114 119.99 94.9314 120.32 94.7314 120.75C94.5314 121.17 94.4314 121.67 94.4314 122.25C94.4314 122.82 94.5264 123.32 94.7164 123.75C94.9164 124.18 95.1914 124.515 95.5414 124.755C95.9014 124.985 96.3164 125.1 96.7864 125.1ZM105.336 126.15C104.606 126.15 103.931 125.995 103.311 125.685C102.701 125.375 102.231 124.935 101.901 124.365L102.921 123.63C103.141 124.09 103.461 124.45 103.881 124.71C104.311 124.97 104.826 125.1 105.426 125.1C105.956 125.1 106.371 125 106.671 124.8C106.971 124.59 107.121 124.32 107.121 123.99C107.121 123.78 107.051 123.59 106.911 123.42C106.781 123.24 106.526 123.11 106.146 123.03L104.346 122.655C103.616 122.505 103.091 122.255 102.771 121.905C102.461 121.555 102.306 121.12 102.306 120.6C102.306 120.19 102.421 119.815 102.651 119.475C102.891 119.135 103.226 118.865 103.656 118.665C104.096 118.455 104.611 118.35 105.201 118.35C105.941 118.35 106.566 118.495 107.076 118.785C107.586 119.075 107.966 119.485 108.216 120.015L107.211 120.675C107.041 120.235 106.766 119.915 106.386 119.715C106.006 119.505 105.611 119.4 105.201 119.4C104.841 119.4 104.531 119.45 104.271 119.55C104.021 119.65 103.826 119.79 103.686 119.97C103.556 120.14 103.491 120.335 103.491 120.555C103.491 120.775 103.566 120.98 103.716 121.17C103.866 121.35 104.146 121.48 104.556 121.56L106.431 121.95C107.131 122.09 107.621 122.32 107.901 122.64C108.181 122.96 108.321 123.35 108.321 123.81C108.321 124.28 108.196 124.695 107.946 125.055C107.696 125.405 107.346 125.675 106.896 125.865C106.446 126.055 105.926 126.15 105.336 126.15ZM113.261 126.15C112.781 126.15 112.326 126.06 111.896 125.88C111.476 125.7 111.131 125.41 110.861 125.01C110.601 124.6 110.471 124.07 110.471 123.42V118.5H111.671V123.105C111.671 123.865 111.836 124.39 112.166 124.68C112.496 124.96 112.961 125.1 113.561 125.1C113.841 125.1 114.116 125.055 114.386 124.965C114.656 124.865 114.896 124.715 115.106 124.515C115.326 124.305 115.496 124.04 115.616 123.72C115.746 123.4 115.811 123.02 115.811 122.58V118.5H117.011V126H115.961L115.886 124.86C115.626 125.31 115.271 125.64 114.821 125.85C114.381 126.05 113.861 126.15 113.261 126.15ZM119.804 126V118.5H120.854L120.929 119.67C121.199 119.21 121.549 118.875 121.979 118.665C122.419 118.455 122.869 118.35 123.329 118.35C123.859 118.35 124.359 118.47 124.829 118.71C125.299 118.95 125.659 119.32 125.909 119.82C126.069 119.48 126.294 119.205 126.584 118.995C126.874 118.775 127.189 118.615 127.529 118.515C127.879 118.405 128.209 118.35 128.519 118.35C128.999 118.35 129.454 118.45 129.884 118.65C130.324 118.85 130.684 119.16 130.964 119.58C131.244 120 131.384 120.54 131.384 121.2V126H130.184V121.32C130.184 120.64 130.014 120.15 129.674 119.85C129.334 119.55 128.914 119.4 128.414 119.4C128.024 119.4 127.659 119.495 127.319 119.685C126.979 119.875 126.704 120.155 126.494 120.525C126.294 120.895 126.194 121.35 126.194 121.89V126H124.994V121.32C124.994 120.64 124.824 120.15 124.484 119.85C124.144 119.55 123.724 119.4 123.224 119.4C122.894 119.4 122.554 119.49 122.204 119.67C121.864 119.84 121.579 120.115 121.349 120.495C121.119 120.875 121.004 121.375 121.004 121.995V126H119.804ZM134.701 124.2C134.941 124.2 135.141 124.265 135.301 124.395C135.471 124.515 135.601 124.685 135.691 124.905C135.781 125.115 135.826 125.365 135.826 125.655C135.826 125.985 135.766 126.31 135.646 126.63C135.536 126.95 135.361 127.245 135.121 127.515C134.881 127.785 134.571 128.01 134.191 128.19L133.561 127.605C133.831 127.515 134.066 127.39 134.266 127.23C134.476 127.07 134.646 126.89 134.776 126.69C134.906 126.49 134.991 126.285 135.031 126.075L134.971 126.045C134.931 126.075 134.881 126.1 134.821 126.12C134.761 126.14 134.671 126.15 134.551 126.15C134.431 126.15 134.306 126.115 134.176 126.045C134.056 125.975 133.951 125.875 133.861 125.745C133.771 125.605 133.726 125.425 133.726 125.205C133.726 125.025 133.771 124.86 133.861 124.71C133.951 124.55 134.066 124.425 134.206 124.335C134.356 124.245 134.521 124.2 134.701 124.2ZM146.122 126.15C145.502 126.15 144.932 125.995 144.412 125.685C143.892 125.375 143.477 124.93 143.167 124.35C142.857 123.76 142.702 123.06 142.702 122.25C142.702 121.42 142.867 120.715 143.197 120.135C143.527 119.555 143.962 119.115 144.502 118.815C145.042 118.505 145.622 118.35 146.242 118.35C146.862 118.35 147.397 118.51 147.847 118.83C148.307 119.15 148.612 119.575 148.762 120.105L148.612 120.21V115.05H149.812V126H148.762L148.657 124.185L148.822 124.095C148.752 124.535 148.582 124.91 148.312 125.22C148.052 125.52 147.727 125.75 147.337 125.91C146.957 126.07 146.552 126.15 146.122 126.15ZM146.242 125.1C146.722 125.1 147.137 124.98 147.487 124.74C147.847 124.5 148.122 124.16 148.312 123.72C148.512 123.27 148.612 122.745 148.612 122.145C148.612 121.575 148.512 121.085 148.312 120.675C148.122 120.265 147.852 119.95 147.502 119.73C147.162 119.51 146.762 119.4 146.302 119.4C145.542 119.4 144.952 119.66 144.532 120.18C144.112 120.7 143.902 121.39 143.902 122.25C143.902 123.11 144.107 123.8 144.517 124.32C144.927 124.84 145.502 125.1 146.242 125.1ZM155.707 118.35C156.417 118.35 157.042 118.505 157.582 118.815C158.132 119.125 158.562 119.575 158.872 120.165C159.182 120.745 159.337 121.44 159.337 122.25C159.337 123.06 159.182 123.76 158.872 124.35C158.562 124.93 158.132 125.375 157.582 125.685C157.042 125.995 156.417 126.15 155.707 126.15C155.007 126.15 154.382 125.995 153.832 125.685C153.282 125.375 152.852 124.93 152.542 124.35C152.232 123.76 152.077 123.06 152.077 122.25C152.077 121.44 152.232 120.745 152.542 120.165C152.852 119.575 153.282 119.125 153.832 118.815C154.382 118.505 155.007 118.35 155.707 118.35ZM155.707 119.385C155.197 119.385 154.762 119.5 154.402 119.73C154.042 119.96 153.762 120.29 153.562 120.72C153.372 121.14 153.277 121.65 153.277 122.25C153.277 122.84 153.372 123.35 153.562 123.78C153.762 124.21 154.042 124.54 154.402 124.77C154.762 125 155.197 125.115 155.707 125.115C156.217 125.115 156.652 125 157.012 124.77C157.372 124.54 157.647 124.21 157.837 123.78C158.037 123.35 158.137 122.84 158.137 122.25C158.137 121.65 158.037 121.14 157.837 120.72C157.647 120.29 157.372 119.96 157.012 119.73C156.652 119.5 156.217 119.385 155.707 119.385ZM162.736 115.05V124.095C162.736 124.475 162.806 124.74 162.946 124.89C163.086 125.03 163.311 125.1 163.621 125.1C163.821 125.1 163.986 125.085 164.116 125.055C164.246 125.025 164.421 124.97 164.641 124.89L164.446 125.94C164.286 126.01 164.111 126.06 163.921 126.09C163.731 126.13 163.536 126.15 163.336 126.15C162.726 126.15 162.271 125.985 161.971 125.655C161.681 125.325 161.536 124.82 161.536 124.14V115.05H162.736ZM169.286 118.35C169.996 118.35 170.621 118.505 171.161 118.815C171.711 119.125 172.141 119.575 172.451 120.165C172.761 120.745 172.916 121.44 172.916 122.25C172.916 123.06 172.761 123.76 172.451 124.35C172.141 124.93 171.711 125.375 171.161 125.685C170.621 125.995 169.996 126.15 169.286 126.15C168.586 126.15 167.961 125.995 167.411 125.685C166.861 125.375 166.431 124.93 166.121 124.35C165.811 123.76 165.656 123.06 165.656 122.25C165.656 121.44 165.811 120.745 166.121 120.165C166.431 119.575 166.861 119.125 167.411 118.815C167.961 118.505 168.586 118.35 169.286 118.35ZM169.286 119.385C168.776 119.385 168.341 119.5 167.981 119.73C167.621 119.96 167.341 120.29 167.141 120.72C166.951 121.14 166.856 121.65 166.856 122.25C166.856 122.84 166.951 123.35 167.141 123.78C167.341 124.21 167.621 124.54 167.981 124.77C168.341 125 168.776 125.115 169.286 125.115C169.796 125.115 170.231 125 170.591 124.77C170.951 124.54 171.226 124.21 171.416 123.78C171.616 123.35 171.716 122.84 171.716 122.25C171.716 121.65 171.616 121.14 171.416 120.72C171.226 120.29 170.951 119.96 170.591 119.73C170.231 119.5 169.796 119.385 169.286 119.385ZM175.175 126V118.5H176.15L176.315 119.73C176.525 119.27 176.83 118.925 177.23 118.695C177.64 118.465 178.135 118.35 178.715 118.35C178.845 118.35 178.985 118.36 179.135 118.38C179.295 118.4 179.43 118.44 179.54 118.5L179.33 119.595C179.22 119.555 179.1 119.525 178.97 119.505C178.84 119.485 178.655 119.475 178.415 119.475C178.105 119.475 177.79 119.565 177.47 119.745C177.16 119.925 176.9 120.2 176.69 120.57C176.48 120.93 176.375 121.39 176.375 121.95V126H175.175ZM188.759 126.15C188.029 126.15 187.354 125.995 186.734 125.685C186.124 125.375 185.654 124.935 185.324 124.365L186.344 123.63C186.564 124.09 186.884 124.45 187.304 124.71C187.734 124.97 188.249 125.1 188.849 125.1C189.379 125.1 189.794 125 190.094 124.8C190.394 124.59 190.544 124.32 190.544 123.99C190.544 123.78 190.474 123.59 190.334 123.42C190.204 123.24 189.949 123.11 189.569 123.03L187.769 122.655C187.039 122.505 186.514 122.255 186.194 121.905C185.884 121.555 185.729 121.12 185.729 120.6C185.729 120.19 185.844 119.815 186.074 119.475C186.314 119.135 186.649 118.865 187.079 118.665C187.519 118.455 188.034 118.35 188.624 118.35C189.364 118.35 189.989 118.495 190.499 118.785C191.009 119.075 191.389 119.485 191.639 120.015L190.634 120.675C190.464 120.235 190.189 119.915 189.809 119.715C189.429 119.505 189.034 119.4 188.624 119.4C188.264 119.4 187.954 119.45 187.694 119.55C187.444 119.65 187.249 119.79 187.109 119.97C186.979 120.14 186.914 120.335 186.914 120.555C186.914 120.775 186.989 120.98 187.139 121.17C187.289 121.35 187.569 121.48 187.979 121.56L189.854 121.95C190.554 122.09 191.044 122.32 191.324 122.64C191.604 122.96 191.744 123.35 191.744 123.81C191.744 124.28 191.619 124.695 191.369 125.055C191.119 125.405 190.769 125.675 190.319 125.865C189.869 126.055 189.349 126.15 188.759 126.15ZM194.569 117.06C194.299 117.06 194.079 116.98 193.909 116.82C193.749 116.65 193.669 116.43 193.669 116.16C193.669 115.89 193.749 115.675 193.909 115.515C194.079 115.345 194.299 115.26 194.569 115.26C194.839 115.26 195.054 115.345 195.214 115.515C195.384 115.675 195.469 115.89 195.469 116.16C195.469 116.43 195.384 116.65 195.214 116.82C195.054 116.98 194.839 117.06 194.569 117.06ZM195.169 118.5V126H193.969V118.5H195.169ZM199.723 116.37V123.93C199.723 124.3 199.828 124.575 200.038 124.755C200.248 124.935 200.518 125.025 200.848 125.025C201.138 125.025 201.388 124.975 201.598 124.875C201.808 124.775 201.998 124.64 202.168 124.47L202.588 125.475C202.358 125.685 202.083 125.85 201.763 125.97C201.453 126.09 201.093 126.15 200.683 126.15C200.303 126.15 199.948 126.085 199.618 125.955C199.288 125.815 199.023 125.6 198.823 125.31C198.633 125.01 198.533 124.62 198.523 124.14V116.7L199.723 116.37ZM202.453 118.5V119.535H197.023V118.5H202.453Z" fill="#212529"/>
<path d="M19.8999 150.203C20.0066 150.094 20.1338 150.008 20.2743 149.949C20.4148 149.89 20.5656 149.859 20.7179 149.859C20.8703 149.859 21.0211 149.89 21.1615 149.949C21.302 150.008 21.4292 150.094 21.5359 150.203C21.9828 150.655 21.989 151.384 21.5515 151.844L12.3124 162.766C12.2075 162.881 12.0802 162.973 11.9383 163.038C11.7964 163.102 11.6429 163.137 11.4871 163.14C11.3314 163.143 11.1766 163.114 11.0324 163.055C10.8882 162.996 10.7575 162.908 10.6484 162.797L5.0265 157.1C4.80968 156.879 4.68823 156.582 4.68823 156.272C4.68823 155.962 4.80968 155.665 5.0265 155.444C5.13314 155.335 5.26041 155.248 5.40086 155.189C5.54131 155.13 5.69212 155.1 5.84447 155.1C5.99681 155.1 6.14763 155.13 6.28808 155.189C6.42853 155.248 6.5558 155.335 6.66244 155.444L11.4312 160.277L19.8687 150.237C19.8784 150.225 19.8888 150.214 19.8999 150.203Z" fill="#74C69D"/>
<path d="M38.9777 160.875H44.6477V162H37.7777V152.1H38.9777V160.875ZM49.4028 154.35C50.1128 154.35 50.7378 154.505 51.2778 154.815C51.8278 155.125 52.2578 155.575 52.5678 156.165C52.8778 156.745 53.0328 157.44 53.0328 158.25C53.0328 159.06 52.8778 159.76 52.5678 160.35C52.2578 160.93 51.8278 161.375 51.2778 161.685C50.7378 161.995 50.1128 162.15 49.4028 162.15C48.7028 162.15 48.0778 161.995 47.5278 161.685C46.9778 161.375 46.5478 160.93 46.2378 160.35C45.9278 159.76 45.7728 159.06 45.7728 158.25C45.7728 157.44 45.9278 156.745 46.2378 156.165C46.5478 155.575 46.9778 155.125 47.5278 154.815C48.0778 154.505 48.7028 154.35 49.4028 154.35ZM49.4028 155.385C48.8928 155.385 48.4578 155.5 48.0978 155.73C47.7378 155.96 47.4578 156.29 47.2578 156.72C47.0678 157.14 46.9728 157.65 46.9728 158.25C46.9728 158.84 47.0678 159.35 47.2578 159.78C47.4578 160.21 47.7378 160.54 48.0978 160.77C48.4578 161 48.8928 161.115 49.4028 161.115C49.9128 161.115 50.3478 161 50.7078 160.77C51.0678 160.54 51.3428 160.21 51.5328 159.78C51.7328 159.35 51.8328 158.84 51.8328 158.25C51.8328 157.65 51.7328 157.14 51.5328 156.72C51.3428 156.29 51.0678 155.96 50.7078 155.73C50.3478 155.5 49.9128 155.385 49.4028 155.385ZM55.292 162V154.5H56.267L56.432 155.73C56.642 155.27 56.947 154.925 57.347 154.695C57.757 154.465 58.252 154.35 58.832 154.35C58.962 154.35 59.102 154.36 59.252 154.38C59.412 154.4 59.547 154.44 59.657 154.5L59.447 155.595C59.337 155.555 59.217 155.525 59.087 155.505C58.957 155.485 58.772 155.475 58.532 155.475C58.222 155.475 57.907 155.565 57.587 155.745C57.277 155.925 57.017 156.2 56.807 156.57C56.597 156.93 56.492 157.39 56.492 157.95V162H55.292ZM64.3156 162.15C63.6056 162.15 62.9706 161.995 62.4106 161.685C61.8606 161.375 61.4306 160.93 61.1206 160.35C60.8106 159.76 60.6556 159.06 60.6556 158.25C60.6556 157.44 60.8106 156.745 61.1206 156.165C61.4306 155.575 61.8556 155.125 62.3956 154.815C62.9356 154.505 63.5506 154.35 64.2406 154.35C64.9406 154.35 65.5356 154.5 66.0256 154.8C66.5256 155.1 66.9056 155.51 67.1656 156.03C67.4256 156.54 67.5556 157.115 67.5556 157.755C67.5556 157.925 67.5506 158.08 67.5406 158.22C67.5306 158.36 67.5156 158.485 67.4956 158.595H61.4356V157.53H66.9706L66.3556 157.65C66.3556 156.93 66.1556 156.375 65.7556 155.985C65.3656 155.595 64.8506 155.4 64.2106 155.4C63.7206 155.4 63.2956 155.515 62.9356 155.745C62.5856 155.965 62.3106 156.29 62.1106 156.72C61.9206 157.14 61.8256 157.65 61.8256 158.25C61.8256 158.84 61.9256 159.35 62.1256 159.78C62.3256 160.21 62.6056 160.54 62.9656 160.77C63.3356 160.99 63.7756 161.1 64.2856 161.1C64.8356 161.1 65.2806 160.995 65.6206 160.785C65.9706 160.575 66.2506 160.29 66.4606 159.93L67.4056 160.485C67.2156 160.825 66.9706 161.12 66.6706 161.37C66.3806 161.62 66.0356 161.815 65.6356 161.955C65.2456 162.085 64.8056 162.15 64.3156 162.15ZM69.8379 162V154.5H70.8879L70.9629 155.67C71.2329 155.21 71.5829 154.875 72.0129 154.665C72.4529 154.455 72.9029 154.35 73.3629 154.35C73.8929 154.35 74.3929 154.47 74.8629 154.71C75.3329 154.95 75.6929 155.32 75.9429 155.82C76.1029 155.48 76.3279 155.205 76.6179 154.995C76.9079 154.775 77.2229 154.615 77.5629 154.515C77.9129 154.405 78.2429 154.35 78.5529 154.35C79.0329 154.35 79.4879 154.45 79.9179 154.65C80.3579 154.85 80.7179 155.16 80.9979 155.58C81.2779 156 81.4179 156.54 81.4179 157.2V162H80.2179V157.32C80.2179 156.64 80.0479 156.15 79.7079 155.85C79.3679 155.55 78.9479 155.4 78.4479 155.4C78.0579 155.4 77.6929 155.495 77.3529 155.685C77.0129 155.875 76.7379 156.155 76.5279 156.525C76.3279 156.895 76.2279 157.35 76.2279 157.89V162H75.0279V157.32C75.0279 156.64 74.8579 156.15 74.5179 155.85C74.1779 155.55 73.7579 155.4 73.2579 155.4C72.9279 155.4 72.5879 155.49 72.2379 155.67C71.8979 155.84 71.6129 156.115 71.3829 156.495C71.1529 156.875 71.0379 157.375 71.0379 157.995V162H69.8379ZM89.8471 153.06C89.5771 153.06 89.3571 152.98 89.1871 152.82C89.0271 152.65 88.9471 152.43 88.9471 152.16C88.9471 151.89 89.0271 151.675 89.1871 151.515C89.3571 151.345 89.5771 151.26 89.8471 151.26C90.1171 151.26 90.3321 151.345 90.4921 151.515C90.6621 151.675 90.7471 151.89 90.7471 152.16C90.7471 152.43 90.6621 152.65 90.4921 152.82C90.3321 152.98 90.1171 153.06 89.8471 153.06ZM90.4471 154.5V162H89.2471V154.5H90.4471ZM93.2314 165.15V154.5H94.2814L94.3864 156.33L94.2214 156.12C94.3514 155.77 94.5464 155.465 94.8064 155.205C95.0664 154.935 95.3814 154.725 95.7514 154.575C96.1214 154.425 96.5214 154.35 96.9514 154.35C97.5614 154.35 98.1214 154.505 98.6314 154.815C99.1514 155.125 99.5664 155.57 99.8764 156.15C100.186 156.73 100.341 157.43 100.341 158.25C100.341 159.06 100.181 159.76 99.8614 160.35C99.5514 160.93 99.1364 161.375 98.6164 161.685C98.0964 161.995 97.5264 162.15 96.9064 162.15C96.2864 162.15 95.7414 162 95.2714 161.7C94.8114 161.39 94.4814 161 94.2814 160.53L94.4314 160.305V165.15H93.2314ZM96.7864 161.1C97.5264 161.1 98.1014 160.84 98.5114 160.32C98.9314 159.8 99.1414 159.11 99.1414 158.25C99.1414 157.39 98.9364 156.7 98.5264 156.18C98.1264 155.66 97.5614 155.4 96.8314 155.4C96.3514 155.4 95.9314 155.52 95.5714 155.76C95.2114 155.99 94.9314 156.32 94.7314 156.75C94.5314 157.17 94.4314 157.67 94.4314 158.25C94.4314 158.82 94.5264 159.32 94.7164 159.75C94.9164 160.18 95.1914 160.515 95.5414 160.755C95.9014 160.985 96.3164 161.1 96.7864 161.1ZM105.336 162.15C104.606 162.15 103.931 161.995 103.311 161.685C102.701 161.375 102.231 160.935 101.901 160.365L102.921 159.63C103.141 160.09 103.461 160.45 103.881 160.71C104.311 160.97 104.826 161.1 105.426 161.1C105.956 161.1 106.371 161 106.671 160.8C106.971 160.59 107.121 160.32 107.121 159.99C107.121 159.78 107.051 159.59 106.911 159.42C106.781 159.24 106.526 159.11 106.146 159.03L104.346 158.655C103.616 158.505 103.091 158.255 102.771 157.905C102.461 157.555 102.306 157.12 102.306 156.6C102.306 156.19 102.421 155.815 102.651 155.475C102.891 155.135 103.226 154.865 103.656 154.665C104.096 154.455 104.611 154.35 105.201 154.35C105.941 154.35 106.566 154.495 107.076 154.785C107.586 155.075 107.966 155.485 108.216 156.015L107.211 156.675C107.041 156.235 106.766 155.915 106.386 155.715C106.006 155.505 105.611 155.4 105.201 155.4C104.841 155.4 104.531 155.45 104.271 155.55C104.021 155.65 103.826 155.79 103.686 155.97C103.556 156.14 103.491 156.335 103.491 156.555C103.491 156.775 103.566 156.98 103.716 157.17C103.866 157.35 104.146 157.48 104.556 157.56L106.431 157.95C107.131 158.09 107.621 158.32 107.901 158.64C108.181 158.96 108.321 159.35 108.321 159.81C108.321 160.28 108.196 160.695 107.946 161.055C107.696 161.405 107.346 161.675 106.896 161.865C106.446 162.055 105.926 162.15 105.336 162.15ZM113.261 162.15C112.781 162.15 112.326 162.06 111.896 161.88C111.476 161.7 111.131 161.41 110.861 161.01C110.601 160.6 110.471 160.07 110.471 159.42V154.5H111.671V159.105C111.671 159.865 111.836 160.39 112.166 160.68C112.496 160.96 112.961 161.1 113.561 161.1C113.841 161.1 114.116 161.055 114.386 160.965C114.656 160.865 114.896 160.715 115.106 160.515C115.326 160.305 115.496 160.04 115.616 159.72C115.746 159.4 115.811 159.02 115.811 158.58V154.5H117.011V162H115.961L115.886 160.86C115.626 161.31 115.271 161.64 114.821 161.85C114.381 162.05 113.861 162.15 113.261 162.15ZM119.804 162V154.5H120.854L120.929 155.67C121.199 155.21 121.549 154.875 121.979 154.665C122.419 154.455 122.869 154.35 123.329 154.35C123.859 154.35 124.359 154.47 124.829 154.71C125.299 154.95 125.659 155.32 125.909 155.82C126.069 155.48 126.294 155.205 126.584 154.995C126.874 154.775 127.189 154.615 127.529 154.515C127.879 154.405 128.209 154.35 128.519 154.35C128.999 154.35 129.454 154.45 129.884 154.65C130.324 154.85 130.684 155.16 130.964 155.58C131.244 156 131.384 156.54 131.384 157.2V162H130.184V157.32C130.184 156.64 130.014 156.15 129.674 155.85C129.334 155.55 128.914 155.4 128.414 155.4C128.024 155.4 127.659 155.495 127.319 155.685C126.979 155.875 126.704 156.155 126.494 156.525C126.294 156.895 126.194 157.35 126.194 157.89V162H124.994V157.32C124.994 156.64 124.824 156.15 124.484 155.85C124.144 155.55 123.724 155.4 123.224 155.4C122.894 155.4 122.554 155.49 122.204 155.67C121.864 155.84 121.579 156.115 121.349 156.495C121.119 156.875 121.004 157.375 121.004 157.995V162H119.804ZM134.701 160.2C134.941 160.2 135.141 160.265 135.301 160.395C135.471 160.515 135.601 160.685 135.691 160.905C135.781 161.115 135.826 161.365 135.826 161.655C135.826 161.985 135.766 162.31 135.646 162.63C135.536 162.95 135.361 163.245 135.121 163.515C134.881 163.785 134.571 164.01 134.191 164.19L133.561 163.605C133.831 163.515 134.066 163.39 134.266 163.23C134.476 163.07 134.646 162.89 134.776 162.69C134.906 162.49 134.991 162.285 135.031 162.075L134.971 162.045C134.931 162.075 134.881 162.1 134.821 162.12C134.761 162.14 134.671 162.15 134.551 162.15C134.431 162.15 134.306 162.115 134.176 162.045C134.056 161.975 133.951 161.875 133.861 161.745C133.771 161.605 133.726 161.425 133.726 161.205C133.726 161.025 133.771 160.86 133.861 160.71C133.951 160.55 134.066 160.425 134.206 160.335C134.356 160.245 134.521 160.2 134.701 160.2ZM146.122 162.15C145.502 162.15 144.932 161.995 144.412 161.685C143.892 161.375 143.477 160.93 143.167 160.35C142.857 159.76 142.702 159.06 142.702 158.25C142.702 157.42 142.867 156.715 143.197 156.135C143.527 155.555 143.962 155.115 144.502 154.815C145.042 154.505 145.622 154.35 146.242 154.35C146.862 154.35 147.397 154.51 147.847 154.83C148.307 155.15 148.612 155.575 148.762 156.105L148.612 156.21V151.05H149.812V162H148.762L148.657 160.185L148.822 160.095C148.752 160.535 148.582 160.91 148.312 161.22C148.052 161.52 147.727 161.75 147.337 161.91C146.957 162.07 146.552 162.15 146.122 162.15ZM146.242 161.1C146.722 161.1 147.137 160.98 147.487 160.74C147.847 160.5 148.122 160.16 148.312 159.72C148.512 159.27 148.612 158.745 148.612 158.145C148.612 157.575 148.512 157.085 148.312 156.675C148.122 156.265 147.852 155.95 147.502 155.73C147.162 155.51 146.762 155.4 146.302 155.4C145.542 155.4 144.952 155.66 144.532 156.18C144.112 156.7 143.902 157.39 143.902 158.25C143.902 159.11 144.107 159.8 144.517 160.32C144.927 160.84 145.502 161.1 146.242 161.1ZM155.707 154.35C156.417 154.35 157.042 154.505 157.582 154.815C158.132 155.125 158.562 155.575 158.872 156.165C159.182 156.745 159.337 157.44 159.337 158.25C159.337 159.06 159.182 159.76 158.872 160.35C158.562 160.93 158.132 161.375 157.582 161.685C157.042 161.995 156.417 162.15 155.707 162.15C155.007 162.15 154.382 161.995 153.832 161.685C153.282 161.375 152.852 160.93 152.542 160.35C152.232 159.76 152.077 159.06 152.077 158.25C152.077 157.44 152.232 156.745 152.542 156.165C152.852 155.575 153.282 155.125 153.832 154.815C154.382 154.505 155.007 154.35 155.707 154.35ZM155.707 155.385C155.197 155.385 154.762 155.5 154.402 155.73C154.042 155.96 153.762 156.29 153.562 156.72C153.372 157.14 153.277 157.65 153.277 158.25C153.277 158.84 153.372 159.35 153.562 159.78C153.762 160.21 154.042 160.54 154.402 160.77C154.762 161 155.197 161.115 155.707 161.115C156.217 161.115 156.652 161 157.012 160.77C157.372 160.54 157.647 160.21 157.837 159.78C158.037 159.35 158.137 158.84 158.137 158.25C158.137 157.65 158.037 157.14 157.837 156.72C157.647 156.29 157.372 155.96 157.012 155.73C156.652 155.5 156.217 155.385 155.707 155.385ZM162.736 151.05V160.095C162.736 160.475 162.806 160.74 162.946 160.89C163.086 161.03 163.311 161.1 163.621 161.1C163.821 161.1 163.986 161.085 164.116 161.055C164.246 161.025 164.421 160.97 164.641 160.89L164.446 161.94C164.286 162.01 164.111 162.06 163.921 162.09C163.731 162.13 163.536 162.15 163.336 162.15C162.726 162.15 162.271 161.985 161.971 161.655C161.681 161.325 161.536 160.82 161.536 160.14V151.05H162.736ZM169.286 154.35C169.996 154.35 170.621 154.505 171.161 154.815C171.711 155.125 172.141 155.575 172.451 156.165C172.761 156.745 172.916 157.44 172.916 158.25C172.916 159.06 172.761 159.76 172.451 160.35C172.141 160.93 171.711 161.375 171.161 161.685C170.621 161.995 169.996 162.15 169.286 162.15C168.586 162.15 167.961 161.995 167.411 161.685C166.861 161.375 166.431 160.93 166.121 160.35C165.811 159.76 165.656 159.06 165.656 158.25C165.656 157.44 165.811 156.745 166.121 156.165C166.431 155.575 166.861 155.125 167.411 154.815C167.961 154.505 168.586 154.35 169.286 154.35ZM169.286 155.385C168.776 155.385 168.341 155.5 167.981 155.73C167.621 155.96 167.341 156.29 167.141 156.72C166.951 157.14 166.856 157.65 166.856 158.25C166.856 158.84 166.951 159.35 167.141 159.78C167.341 160.21 167.621 160.54 167.981 160.77C168.341 161 168.776 161.115 169.286 161.115C169.796 161.115 170.231 161 170.591 160.77C170.951 160.54 171.226 160.21 171.416 159.78C171.616 159.35 171.716 158.84 171.716 158.25C171.716 157.65 171.616 157.14 171.416 156.72C171.226 156.29 170.951 155.96 170.591 155.73C170.231 155.5 169.796 155.385 169.286 155.385ZM175.175 162V154.5H176.15L176.315 155.73C176.525 155.27 176.83 154.925 177.23 154.695C177.64 154.465 178.135 154.35 178.715 154.35C178.845 154.35 178.985 154.36 179.135 154.38C179.295 154.4 179.43 154.44 179.54 154.5L179.33 155.595C179.22 155.555 179.1 155.525 178.97 155.505C178.84 155.485 178.655 155.475 178.415 155.475C178.105 155.475 177.79 155.565 177.47 155.745C177.16 155.925 176.9 156.2 176.69 156.57C176.48 156.93 176.375 157.39 176.375 157.95V162H175.175ZM188.759 162.15C188.029 162.15 187.354 161.995 186.734 161.685C186.124 161.375 185.654 160.935 185.324 160.365L186.344 159.63C186.564 160.09 186.884 160.45 187.304 160.71C187.734 160.97 188.249 161.1 188.849 161.1C189.379 161.1 189.794 161 190.094 160.8C190.394 160.59 190.544 160.32 190.544 159.99C190.544 159.78 190.474 159.59 190.334 159.42C190.204 159.24 189.949 159.11 189.569 159.03L187.769 158.655C187.039 158.505 186.514 158.255 186.194 157.905C185.884 157.555 185.729 157.12 185.729 156.6C185.729 156.19 185.844 155.815 186.074 155.475C186.314 155.135 186.649 154.865 187.079 154.665C187.519 154.455 188.034 154.35 188.624 154.35C189.364 154.35 189.989 154.495 190.499 154.785C191.009 155.075 191.389 155.485 191.639 156.015L190.634 156.675C190.464 156.235 190.189 155.915 189.809 155.715C189.429 155.505 189.034 155.4 188.624 155.4C188.264 155.4 187.954 155.45 187.694 155.55C187.444 155.65 187.249 155.79 187.109 155.97C186.979 156.14 186.914 156.335 186.914 156.555C186.914 156.775 186.989 156.98 187.139 157.17C187.289 157.35 187.569 157.48 187.979 157.56L189.854 157.95C190.554 158.09 191.044 158.32 191.324 158.64C191.604 158.96 191.744 159.35 191.744 159.81C191.744 160.28 191.619 160.695 191.369 161.055C191.119 161.405 190.769 161.675 190.319 161.865C189.869 162.055 189.349 162.15 188.759 162.15ZM194.569 153.06C194.299 153.06 194.079 152.98 193.909 152.82C193.749 152.65 193.669 152.43 193.669 152.16C193.669 151.89 193.749 151.675 193.909 151.515C194.079 151.345 194.299 151.26 194.569 151.26C194.839 151.26 195.054 151.345 195.214 151.515C195.384 151.675 195.469 151.89 195.469 152.16C195.469 152.43 195.384 152.65 195.214 152.82C195.054 152.98 194.839 153.06 194.569 153.06ZM195.169 154.5V162H193.969V154.5H195.169ZM199.723 152.37V159.93C199.723 160.3 199.828 160.575 200.038 160.755C200.248 160.935 200.518 161.025 200.848 161.025C201.138 161.025 201.388 160.975 201.598 160.875C201.808 160.775 201.998 160.64 202.168 160.47L202.588 161.475C202.358 161.685 202.083 161.85 201.763 161.97C201.453 162.09 201.093 162.15 200.683 162.15C200.303 162.15 199.948 162.085 199.618 161.955C199.288 161.815 199.023 161.6 198.823 161.31C198.633 161.01 198.533 160.62 198.523 160.14V152.7L199.723 152.37ZM202.453 154.5V155.535H197.023V154.5H202.453Z" fill="#212529"/>
</svg>
